<?xml version="1.0" standalone="no"?><!DOCTYPE svg PUBLIC "-//W3C//DTD SVG 1.1//EN" "http://www.w3.org/Graphics/SVG/1.1/DTD/svg11.dtd"><svg t="1661321011739" class="icon" viewBox="0 0 1024 1024" version="1.1" xmlns="http://www.w3.org/2000/svg" p-id="215483" xmlns:xlink="http://www.w3.org/1999/xlink" width="200" height="200"><defs><style type="text/css">@font-face { font-family: feedback-iconfont; src: url("//at.alicdn.com/t/font_1031158_u69w8yhxdu.woff2?t=1630033759944") format("woff2"), url("//at.alicdn.com/t/font_1031158_u69w8yhxdu.woff?t=1630033759944") format("woff"), url("//at.alicdn.com/t/font_1031158_u69w8yhxdu.ttf?t=1630033759944") format("truetype"); }
</style></defs><path d="M41.8 63.9h83.6v720.9H41.8zM212.2 63.9h83.6v720.9h-83.6zM382.6 63.9h83.6v720.9h-83.6z" fill="#1AC0D6" p-id="215484"></path><path d="M41.8 63.9h424.4v83.6H41.8z" fill="#1AC0D6" p-id="215485"></path><path d="M41.8 514h424.4v187.7H41.8z" fill="#E02D2D" p-id="215486"></path><path d="M125.5 784.8h89.2V874h-89.2zM295.9 784.8h89.2V874h-89.2z" fill="#1AC0D6" p-id="215487"></path><path d="M209.4 874h89.2v89.2h-89.2z" fill="#E02D2D" p-id="215488"></path><path d="M560.3 63.9h83.6v720.9h-83.6zM730.7 63.9h83.6v720.9h-83.6zM901.1 63.9h83.6v720.9h-83.6z" fill="#1AC0D6" p-id="215489"></path><path d="M560.3 63.9h424.4v83.6H560.3z" fill="#1AC0D6" p-id="215490"></path><path d="M560.3 514h424.4v187.7H560.3z" fill="#35D335" p-id="215491"></path><path d="M644 784.8h89.2V874H644zM814.4 784.8h89.2V874h-89.2z" fill="#1AC0D6" p-id="215492"></path><path d="M727.9 874h89.2v89.2h-89.2z" fill="#35D335" p-id="215493"></path></svg>