<?xml version="1.0" standalone="no"?><!DOCTYPE svg PUBLIC "-//W3C//DTD SVG 1.1//EN" "http://www.w3.org/Graphics/SVG/1.1/DTD/svg11.dtd"><svg t="1661320991715" class="icon" viewBox="0 0 1024 1024" version="1.1" xmlns="http://www.w3.org/2000/svg" p-id="209353" xmlns:xlink="http://www.w3.org/1999/xlink" width="200" height="200"><defs><style type="text/css">@font-face { font-family: feedback-iconfont; src: url("//at.alicdn.com/t/font_1031158_u69w8yhxdu.woff2?t=1630033759944") format("woff2"), url("//at.alicdn.com/t/font_1031158_u69w8yhxdu.woff?t=1630033759944") format("woff"), url("//at.alicdn.com/t/font_1031158_u69w8yhxdu.ttf?t=1630033759944") format("truetype"); }
</style></defs><path d="M945.230769 472.615385h78.769231v78.76923h-78.769231zM866.461538 945.230769h78.769231v78.769231h-78.769231zM866.461538 866.461538h78.769231v78.769231h-78.769231zM866.461538 787.692308h78.769231v78.76923h-78.769231zM866.461538 708.923077h78.769231v78.769231h-78.769231zM866.461538 630.153846h78.769231v78.769231h-78.769231zM866.461538 551.384615h78.769231v78.769231h-78.769231zM866.461538 472.615385h78.769231v78.76923h-78.769231zM866.461538 393.846154h78.769231v78.769231h-78.769231zM787.692308 945.230769h78.76923v78.769231h-78.76923z" fill="#1E2028" p-id="209354"></path><path d="M787.692308 866.461538h78.76923v78.769231h-78.76923zM787.692308 787.692308h78.76923v78.76923h-78.76923zM787.692308 708.923077h78.76923v78.769231h-78.76923zM787.692308 630.153846h78.76923v78.769231h-78.76923zM787.692308 551.384615h78.76923v78.769231h-78.76923z" fill="#FF9343" p-id="209355"></path><path d="M787.692308 472.615385h78.76923v78.76923h-78.76923z" fill="#1E2028" p-id="209356"></path><path d="M787.692308 393.846154h78.76923v78.769231h-78.76923z" fill="#AF1441" p-id="209357"></path><path d="M787.692308 315.076923h78.76923v78.769231h-78.76923zM787.692308 236.307692h78.76923v78.769231h-78.76923zM787.692308 157.538462h78.76923v78.76923h-78.76923zM708.923077 945.230769h78.769231v78.769231h-78.769231z" fill="#1E2028" p-id="209358"></path><path d="M708.923077 866.461538h78.769231v78.769231h-78.769231zM708.923077 787.692308h78.769231v78.76923h-78.769231zM708.923077 708.923077h78.769231v78.769231h-78.769231zM708.923077 630.153846h78.769231v78.769231h-78.769231z" fill="#FFDD4D" p-id="209359"></path><path d="M708.923077 551.384615h78.769231v78.769231h-78.769231z" fill="#FF9343" p-id="209360"></path><path d="M708.923077 472.615385h78.769231v78.76923h-78.769231z" fill="#1E2028" p-id="209361"></path><path d="M708.923077 393.846154h78.769231v78.769231h-78.769231z" fill="#FF1A51" p-id="209362"></path><path d="M708.923077 315.076923h78.769231v78.769231h-78.769231z" fill="#AF1441" p-id="209363"></path><path d="M708.923077 236.307692h78.769231v78.769231h-78.769231zM630.153846 945.230769h78.769231v78.769231h-78.769231z" fill="#1E2028" p-id="209364"></path><path d="M630.153846 866.461538h78.769231v78.769231h-78.769231zM630.153846 787.692308h78.769231v78.76923h-78.769231zM630.153846 708.923077h78.769231v78.769231h-78.769231zM630.153846 630.153846h78.769231v78.769231h-78.769231z" fill="#FFDD4D" p-id="209365"></path><path d="M630.153846 551.384615h78.769231v78.769231h-78.769231z" fill="#FF9343" p-id="209366"></path><path d="M630.153846 472.615385h78.769231v78.76923h-78.769231z" fill="#1E2028" p-id="209367"></path><path d="M630.153846 393.846154h78.769231v78.769231h-78.769231zM630.153846 315.076923h78.769231v78.769231h-78.769231z" fill="#FF1A51" p-id="209368"></path><path d="M630.153846 236.307692h78.769231v78.769231h-78.769231z" fill="#AF1441" p-id="209369"></path><path d="M630.153846 157.538462h78.769231v78.76923h-78.769231zM551.384615 945.230769h78.769231v78.769231h-78.769231z" fill="#1E2028" p-id="209370"></path><path d="M551.384615 866.461538h78.769231v78.769231h-78.769231zM551.384615 787.692308h78.769231v78.76923h-78.769231zM551.384615 708.923077h78.769231v78.769231h-78.769231zM551.384615 630.153846h78.769231v78.769231h-78.769231z" fill="#FFDD4D" p-id="209371"></path><path d="M551.384615 551.384615h78.769231v78.769231h-78.769231z" fill="#FF9343" p-id="209372"></path><path d="M551.384615 472.615385h78.769231v78.76923h-78.769231z" fill="#1E2028" p-id="209373"></path><path d="M551.384615 393.846154h78.769231v78.769231h-78.769231zM551.384615 315.076923h78.769231v78.769231h-78.769231zM551.384615 236.307692h78.769231v78.769231h-78.769231z" fill="#FF1A51" p-id="209374"></path><path d="M551.384615 157.538462h78.769231v78.76923h-78.769231z" fill="#AF1441" p-id="209375"></path><path d="M551.384615 78.769231h78.769231v78.769231h-78.769231zM472.615385 945.230769h78.76923v78.769231h-78.76923z" fill="#1E2028" p-id="209376"></path><path d="M472.615385 866.461538h78.76923v78.769231h-78.76923zM472.615385 787.692308h78.76923v78.76923h-78.76923zM472.615385 708.923077h78.76923v78.769231h-78.76923zM472.615385 630.153846h78.76923v78.769231h-78.76923z" fill="#FFDD4D" p-id="209377"></path><path d="M472.615385 551.384615h78.76923v78.769231h-78.76923z" fill="#FF9343" p-id="209378"></path><path d="M472.615385 472.615385h78.76923v78.76923h-78.76923z" fill="#1E2028" p-id="209379"></path><path d="M472.615385 393.846154h78.76923v78.769231h-78.76923zM472.615385 315.076923h78.76923v78.769231h-78.76923zM472.615385 236.307692h78.76923v78.769231h-78.76923zM472.615385 157.538462h78.76923v78.76923h-78.76923z" fill="#FF1A51" p-id="209380"></path><path d="M472.615385 78.769231h78.76923v78.769231h-78.76923z" fill="#F4608A" p-id="209381"></path><path d="M472.615385 0h78.76923v78.769231h-78.76923zM393.846154 945.230769h78.769231v78.769231h-78.769231zM393.846154 866.461538h78.769231v78.769231h-78.769231zM393.846154 787.692308h78.769231v78.76923h-78.769231zM393.846154 708.923077h78.769231v78.769231h-78.769231z" fill="#1E2028" p-id="209382"></path><path d="M393.846154 630.153846h78.769231v78.769231h-78.769231z" fill="#FFDD4D" p-id="209383"></path><path d="M393.846154 551.384615h78.769231v78.769231h-78.769231z" fill="#FF9343" p-id="209384"></path><path d="M393.846154 472.615385h78.769231v78.76923h-78.769231z" fill="#1E2028" p-id="209385"></path><path d="M393.846154 393.846154h78.769231v78.769231h-78.769231zM393.846154 315.076923h78.769231v78.769231h-78.769231zM393.846154 236.307692h78.769231v78.769231h-78.769231z" fill="#FF1A51" p-id="209386"></path><path d="M393.846154 157.538462h78.769231v78.76923h-78.769231z" fill="#F4608A" p-id="209387"></path><path d="M393.846154 78.769231h78.769231v78.769231h-78.769231zM315.076923 945.230769h78.769231v78.769231h-78.769231z" fill="#1E2028" p-id="209388"></path><path d="M315.076923 866.461538h78.769231v78.769231h-78.769231zM315.076923 787.692308h78.769231v78.76923h-78.769231zM315.076923 708.923077h78.769231v78.769231h-78.769231zM315.076923 630.153846h78.769231v78.769231h-78.769231z" fill="#FFDD4D" p-id="209389"></path><path d="M315.076923 551.384615h78.769231v78.769231h-78.769231z" fill="#FF9343" p-id="209390"></path><path d="M315.076923 472.615385h78.769231v78.76923h-78.769231z" fill="#1E2028" p-id="209391"></path><path d="M315.076923 393.846154h78.769231v78.769231h-78.769231zM315.076923 315.076923h78.769231v78.769231h-78.769231z" fill="#FF1A51" p-id="209392"></path><path d="M315.076923 236.307692h78.769231v78.769231h-78.769231z" fill="#F4608A" p-id="209393"></path><path d="M315.076923 157.538462h78.769231v78.76923h-78.769231zM236.307692 945.230769h78.769231v78.769231h-78.769231z" fill="#1E2028" p-id="209394"></path><path d="M236.307692 866.461538h78.769231v78.769231h-78.769231zM236.307692 787.692308h78.769231v78.76923h-78.769231zM236.307692 708.923077h78.769231v78.769231h-78.769231zM236.307692 630.153846h78.769231v78.769231h-78.769231z" fill="#FFDD4D" p-id="209395"></path><path d="M236.307692 551.384615h78.769231v78.769231h-78.769231z" fill="#FF9343" p-id="209396"></path><path d="M236.307692 472.615385h78.769231v78.76923h-78.769231z" fill="#1E2028" p-id="209397"></path><path d="M236.307692 393.846154h78.769231v78.769231h-78.769231z" fill="#FF1A51" p-id="209398"></path><path d="M236.307692 315.076923h78.769231v78.769231h-78.769231z" fill="#F4608A" p-id="209399"></path><path d="M236.307692 236.307692h78.769231v78.769231h-78.769231zM157.538462 945.230769h78.76923v78.769231H157.538462z" fill="#1E2028" p-id="209400"></path><path d="M157.538462 866.461538h78.76923v78.769231H157.538462zM157.538462 787.692308h78.76923v78.76923H157.538462zM157.538462 708.923077h78.76923v78.769231H157.538462zM157.538462 630.153846h78.76923v78.769231H157.538462z" fill="#FFF1B6" p-id="209401"></path><path d="M157.538462 551.384615h78.76923v78.769231H157.538462z" fill="#FF9343" p-id="209402"></path><path d="M157.538462 472.615385h78.76923v78.76923H157.538462z" fill="#1E2028" p-id="209403"></path><path d="M157.538462 393.846154h78.76923v78.769231H157.538462z" fill="#F4608A" p-id="209404"></path><path d="M157.538462 315.076923h78.76923v78.769231H157.538462zM78.769231 945.230769h78.769231v78.769231H78.769231zM78.769231 866.461538h78.769231v78.769231H78.769231zM78.769231 787.692308h78.769231v78.76923H78.769231zM78.769231 708.923077h78.769231v78.769231H78.769231zM78.769231 630.153846h78.769231v78.769231H78.769231zM78.769231 551.384615h78.769231v78.769231H78.769231zM78.769231 472.615385h78.769231v78.76923H78.769231zM78.769231 393.846154h78.769231v78.769231H78.769231zM0 472.615385h78.769231v78.76923H0z" fill="#1E2028" p-id="209405"></path></svg>