<svg xml:space="preserve" style="enable-background:new 0 0 152.4 144.6;" viewBox="0 0 152.4 144.6" y="0px" x="0px" xmlns:xlink="http://www.w3.org/1999/xlink" xmlns="http://www.w3.org/2000/svg" id="图层_1" version="1.1">
<style type="text/css">
	.st0{clip-path:url(#SVGID_2_);}
	.st1{fill:#08A7FF;}
	.st2{fill:#3D1827;}
	.st3{fill:#FFE1D9;}
	.st4{fill:#FFFFFF;}
	.st5{fill:#F4B2AB;}
	.st6{fill:#1B75FB;}
	.st7{fill:#FFFFFF;stroke:#3D1827;stroke-linecap:round;stroke-miterlimit:10;}
	.st8{fill:#39C2FF;}
</style>
<g id="图层_2_1_">
	<g id="图层_1-2">
		<g>
			<defs>
				<path d="M-13.5-23.5h176.6c6.6,0,12,5.4,12,12v144.4c0,6.6-5.4,12-12,12H-13.5c-6.6,0-12-5.4-12-12V-11.5
					C-25.5-18.1-20.1-23.5-13.5-23.5z" id="SVGID_1_"></path>
			</defs>
			<clipPath id="SVGID_2_">
				<use style="overflow:visible;" xlink:href="#SVGID_1_"></use>
			</clipPath>
			<g class="st0">
				<g>
					<g>
						<path d="M56,134.9c-3.7,0-6-0.9-6.7-2.6c-2.4-5.8,14.7-16.5,32.9-24.1c13.3-5.5,26.1-8.9,33.5-8.9
							c3.7,0,6,0.9,6.7,2.6c2.4,5.8-14.7,16.5-32.9,24.1C76.3,131.4,63.5,134.9,56,134.9z" class="st1"></path>
						<path d="M115.7,100.2c3.2,0,5.2,0.6,5.8,2c1.8,4.4-12.6,14.6-32.3,22.8c-13.6,5.6-26.1,8.9-33.2,8.9
							c-3.2,0-5.2-0.6-5.8-2c-1.8-4.4,12.7-14.6,32.3-22.8C96.2,103.5,108.7,100.2,115.7,100.2 M115.7,98.2L115.7,98.2
							c-7.6,0-20.6,3.4-33.9,9c-13,5.4-36.7,17.6-33.4,25.4c1.3,3.2,6.1,3.2,7.7,3.2c7.6,0,20.6-3.4,33.9-9
							c8.6-3.5,16.9-7.8,24.6-13c7.3-5.1,10.1-9.1,8.8-12.4C122,98.3,117.3,98.2,115.7,98.2z" class="st2"></path>
					</g>
					<g>
						<polygon points="45.6,102.7 44.8,101.7 46.6,100.9 90.4,82.8 141.9,150.9 77,147.5" class="st3"></polygon>
						<path d="M90.1,84l12.3,18.1l37.9,48.4l-63-4.2l-15-21.3l-15.8-22.6l-0.2-0.2l0.6-0.3L90.1,84 M90.8,81.5l-1.5,0.6
							L46.2,100l-0.6,0.3l-2.4,1l1.5,2.1l0.2,0.2l15.8,22.5l15,21.3l0.9,1.3l1.5-0.6l63,4.2l2.3-0.9l-1.4-2l-37.9-48.3L91.8,82.9
							L90.8,81.5L90.8,81.5z" class="st2"></path>
					</g>
					<g>
						<path d="M51.2,119.9c-4.1,0-7.8-2.3-9.6-6L2.1,31.8c-2.6-5.3-0.3-11.7,5-14.3l32-15.4c1.4-0.7,3-1.1,4.6-1.1
							c4.1,0,7.8,2.4,9.6,6l39.6,82.1c2.5,5.3,0.3,11.7-5,14.3l-32,15.4C54.4,119.5,52.9,119.9,51.2,119.9z" class="st4"></path>
						<path d="M43.7,2c3.7,0,7.1,2.1,8.7,5.5L92,89.6c2.3,4.8,0.3,10.6-4.5,12.9l-32,15.4c-4.8,2.3-10.6,0.3-12.9-4.5
							L3,31.3c-2.3-4.8-0.3-10.6,4.6-12.9c0,0,0,0,0,0L39.5,3C40.8,2.3,42.3,2,43.7,2 M43.7,0L43.7,0c-1.8,0-3.5,0.4-5.1,1.2
							l-32,15.4c-5.8,2.8-8.3,9.8-5.5,15.6c0,0,0,0,0,0l39.5,82.1c2,4,6.1,6.6,10.5,6.6c1.8,0,3.5-0.4,5.1-1.2l32-15.4
							c5.8-2.8,8.3-9.8,5.5-15.6l-39.5-82C52.3,2.6,48.2,0,43.7,0L43.7,0z" class="st2"></path>
					</g>
					<path d="M102.4,102.1c-0.1,2.8-0.8,5.2-2.8,6.5c-5,3.2-26.6,12.7-37.2,16.4l-15.8-22.6l0.5-0.5L90.1,84
						L102.4,102.1z" class="st5"></path>
					<g>
						<path d="M51.2,118.4c-3.6,0-7-2.1-8.5-5.4L3.3,31.2C1,26.5,3,20.8,7.7,18.5L39.5,3.2C44.2,1,49.9,2.9,52.1,7.7
							c0,0,0,0,0,0l39.4,81.8c2.3,4.7,0.3,10.4-4.4,12.6l-31.8,15.3C54.1,118,52.7,118.4,51.2,118.4z" class="st4"></path>
						<path d="M43.6,3.3c3.3,0,6.2,1.9,7.6,4.8l39.4,81.8c2,4.2,0.3,9.3-3.9,11.3l-31.8,15.3c-4.2,2-9.3,0.2-11.3-4
							c0,0,0,0,0,0L4.2,30.8c-2-4.2-0.2-9.3,4-11.3c0,0,0,0,0,0L39.9,4.1C41.1,3.6,42.3,3.3,43.6,3.3 M43.6,1.3L43.6,1.3
							c-1.6,0-3.1,0.3-4.5,1L7.3,17.6c-5.2,2.5-7.4,8.8-4.9,14c0,0,0,0,0,0l39.4,81.8c1.8,3.6,5.4,5.9,9.4,5.9c1.6,0,3.1-0.3,4.5-1
							L87.5,103c5.2-2.5,7.4-8.8,4.9-14c0,0,0,0,0,0L53,7.2C51.3,3.6,47.6,1.3,43.6,1.3z" class="st2"></path>
					</g>
					<g>
						<path d="M77.6,56.9c-2.2-1.6-14.5-10.8-14.3-17.4c0.1-1.8,1.1-3.3,2.6-4.2c1.5-0.9,3.2-1.4,4.9-1.3
							c9.9,0,20.8,13.7,20.9,13.8c10.8,13.7,11.8,28.4,2.5,40.4l-1,1.3L77.6,56.9z" class="st3"></path>
						<path d="M70.8,34.9c8.2,0,17.7,10.4,20.1,13.4c10.8,13.7,11.3,27.8,2.5,39.1l-15-31.3c0,0-20.6-14.8-11.9-20.1
							C67.8,35.3,69.3,34.9,70.8,34.9 M70.8,32.9L70.8,32.9c-1.9,0-3.8,0.5-5.4,1.5c-1.8,1-3,2.9-3.1,5
							c-0.2,6.9,11.2,15.7,14.5,18.1l14.8,30.8l1.4,2.9l2-2.6c9.6-12.3,8.6-27.5-2.5-41.6C92.4,47,81.2,32.9,70.8,32.9L70.8,32.9z" class="st2"></path>
					</g>
					<path d="M88.2,68.6l-1.8-6.9c-0.5-1.8-1.5-3.3-2.9-4.5c-3-2.6-8.2-6.3-10.4-8.2c-3.4-3-6.6-8.1-7.2-12.5
						C58.5,42,78.4,56.2,78.4,56.2l15.1,31.3c4.5-5.6,6.7-12.7,6-19.9l0,0C98.4,73.2,90.7,73.6,88.2,68.6z" class="st5"></path>
					<g>
						<g>
							<path d="M47,81C35,81,25.3,71.3,25.3,59.4c0-11.9,9.6-21.6,21.6-21.6s21.6,9.6,21.6,21.6
								c0,8.7-5.2,16.6-13.2,19.9C52.7,80.4,49.8,81,47,81z" class="st4"></path>
							<path d="M46.9,38.3c11.7,0,21.1,9.4,21.1,21.1S58.6,80.5,47,80.5s-21.1-9.4-21.1-21.1c0-8.5,5.1-16.2,12.9-19.5
								C41.3,38.8,44.1,38.3,46.9,38.3 M46.9,37.3c-2.9,0-5.9,0.6-8.6,1.7c-11.2,4.7-16.5,17.7-11.7,28.9
								c4.7,11.2,17.7,16.5,28.9,11.7C66.8,74.9,72,62,67.3,50.7C63.8,42.6,55.8,37.3,46.9,37.3z" class="st2"></path>
						</g>
						<path d="M64.7,51.9c0.9,2.2,1.4,4.5,1.5,6.9c0.1,1.7-0.1,3.3-0.5,4.9C63.3,74,53,80.5,42.6,78.1
							S25.8,65.3,28.2,55c2.4-10.4,12.7-16.8,23.1-14.4C57.3,42,62.3,46.2,64.7,51.9L64.7,51.9z" class="st6"></path>
						<path d="M64.8,59c-1.6,0.2-3.3,0.3-4.9,0.5s-3,0.2-4.6,0.2h-0.9c0.3-2.7,0.3-5.4-0.2-8.1l-6.3,2.7
							c-0.2,0.1-0.2,0-0.3-0.1c-0.3-0.7-0.6-1.3-0.8-1.9L46.7,52l7.8-3.3c0.1,0,0.2-0.1,0.1-0.2l-0.4-1c0-0.1-0.1-0.1-0.2-0.1
							l-0.5,0.2c-2.4,1-4.7,2-7.1,3c-0.2,0.1-0.2,0.1-0.4-0.2c-0.5-1.2-1-2.3-1.5-3.5c0-0.2-0.1-0.2-0.3-0.1l-2.8,1.2
							c-0.6,0.3-0.7,0.5-0.4,1.1l1.2,2.9c0.1,0.2,0.1,0.2-0.1,0.3s-0.5,0.2-0.7,0.3l-7,2.9c-0.1,0.1-0.2,0.1-0.1,0.3l0.4,0.8
							c0.1,0.2,0.2,0.2,0.3,0.1l7.6-3.2l0.3-0.1l0.9,2.1c0.1,0.3,0.1,0.3-0.2,0.4l-5.8,2.4c-0.1,0-0.3,0.1-0.4,0.2
							c0,0-0.1,0.1-0.1,0.1l0.5,1.2l12.9-5.4c0,0,0,0.1,0,0.1s0,0.3,0.1,0.4c0.2,1.6,0.2,3.1,0,4.7c0,0.1,0,0.2-0.2,0.2
							c-0.6,0-1.3,0.1-1.9,0.2c-1.3,0.2-2.5,0.3-3.8,0.6c-1.3,0.2-2.5,0.5-3.8,0.9c-1.2,0.4-2.3,1-3.2,1.8c-1.3,1.1-2.2,2.6-2.4,4.3
							c-0.2,1.6,0.3,3.2,1.3,4.5c0.9,1.1,2.2,1.9,3.7,2.1c1.5,0.2,3,0,4.4-0.5c0.8-0.3,1.6-0.7,2.3-1.2c1.6-1.1,3-2.5,4-4.2
							c0.9-1.5,1.7-3,2.2-4.7c0.1-0.3,0.1-0.3,0.4-0.3l3.2,0.1c1.8,0,3.6,0.1,5.3,0.1c1.1,0,2.1,0,3.2,0c0.4-1.6,0.5-3.3,0.5-4.9
							C65.7,58.9,65.2,58.9,64.8,59z M49.9,64.5c-0.4,1.2-0.9,2.4-1.6,3.5c-0.8,1.3-1.9,2.4-3.2,3.3c-1.3,0.8-2.7,1.2-4.2,1.2
							c-1.1,0-2.1-0.3-2.9-1c-0.9-0.8-1.3-2.1-1-3.2c0.2-1.1,0.9-2,1.7-2.7c1-0.8,2-1.3,3.2-1.7c1.2-0.4,2.5-0.6,3.7-0.6
							c1.5-0.1,2.9-0.1,4.4,0c0.1,0,0.2,0,0.2,0C50.1,63.7,50,64.1,49.9,64.5z" class="st4"></path>
					</g>
					<g>
						<g>
							<path d="M12.1,62.8c-2.9,0-5-1.7-6.2-4.9c-2.5-6.9,3.3-9.2,7.1-10.7c1.9-0.8,3.9-1.3,6-1.3
								c2.9-0.2,5.5,1.6,6.5,4.3c1.8,4.4-1,8.7-7.1,11.1C16.4,62.1,14.3,62.6,12.1,62.8z" class="st3"></path>
							<path d="M18.9,46.9c2.5-0.2,4.8,1.3,5.6,3.6c1.7,4.4-1.6,7.9-6.5,9.8c-1.9,0.9-3.9,1.4-5.9,1.5
								c-2.3,0-4.1-1.1-5.3-4.2c-2-5.5,1.6-7.5,6.5-9.4C15.1,47.4,17,46.9,18.9,46.9 M18.9,44.9L18.9,44.9c-2.2,0.1-4.4,0.5-6.4,1.4
								c-3.9,1.6-10.5,4.2-7.7,12c1.4,3.7,3.8,5.6,7.2,5.6c2.3-0.1,4.6-0.7,6.7-1.7c6.7-2.7,9.6-7.4,7.6-12.4
								C25.2,46.7,22.2,44.7,18.9,44.9L18.9,44.9z" class="st2"></path>
						</g>
						<path d="M21.6,47.4c0,0,0,0.1,0.1,0.1c1.7,4.4-1.6,7.9-6.5,9.8c-3.1,1.2-5.9,2-8,1.1c2.2,4.6,6.2,3.7,10.9,1.9
							c4.9-2,8.2-5.4,6.5-9.8C24.1,49.1,23,48,21.6,47.4z" class="st5"></path>
						<g>
							<path d="M16.7,74.9c-3.2,0-5.3-1.7-6.6-5.2c-2.7-7.5,4.1-10,9.6-12c2-0.8,4.2-1.3,6.4-1.3
								c3.2-0.2,6.2,1.8,7.2,4.8c1,2.8,1.3,8-8.2,11.5l-0.5,0.2C21.8,73.9,19.2,74.9,16.7,74.9z" class="st3"></path>
							<path d="M26.2,57.4c2.8-0.2,5.4,1.5,6.2,4.2c1.7,4.7-1.7,8-7.6,10.2c-2.9,1.1-5.7,2.1-8,2.1s-4.4-1.1-5.6-4.5
								c-2.3-6.3,3.1-8.6,9-10.7C22.1,57.9,24.1,57.5,26.2,57.4 M26.2,55.4L26.2,55.4c-2.3,0.1-4.6,0.5-6.8,1.4
								c-3.3,1.2-6.2,2.4-8.2,4.2c-2.7,2.4-3.3,5.4-2,9.1c1.4,3.9,4,5.8,7.5,5.8c2.6,0,5.4-1,8.3-2.1l0.5-0.2
								c10.4-3.8,10-9.6,8.8-12.8C33.1,57.4,29.8,55.2,26.2,55.4L26.2,55.4z" class="st2"></path>
						</g>
						<path d="M29.7,58.2c0,0.1,0.1,0.2,0.1,0.2c1.7,4.7-1.7,8-7.6,10.2c-4.1,1.5-8,3-10.7,1.5
							c2.6,5.7,7.7,3.6,13.3,1.6c5.9-2.2,9.3-5.5,7.6-10.2C31.9,60.2,31,59,29.7,58.2z" class="st5"></path>
						<g>
							<path d="M22,85.8c-3.5,0-5.7-1.8-6.6-5.5c-0.8-3.2,0-5.7,2.4-7.4c2-1.4,4.7-2.2,7.8-3c1.9-0.5,3.8-0.8,5.7-0.8
								c4.3,0,7.2,1.8,8,5c1.2,4.6-2.6,8.4-10,10.4l-0.4,0.1C26.5,85.3,24.3,85.7,22,85.8z" class="st3"></path>
							<path d="M31.2,70.1c3.5,0,6.3,1.2,7.1,4.2c1.2,4.6-3.7,7.7-9.3,9.2c-2.3,0.7-4.6,1.2-6.9,1.3
								c-2.7,0-4.7-1.1-5.7-4.8c-1.6-6.1,3.8-7.7,9.5-9.2C27.5,70.3,29.4,70.1,31.2,70.1 M31.2,68.1c-2,0-4,0.3-6,0.8
								c-3.2,0.9-6,1.7-8.1,3.2c-2.7,2-3.7,4.9-2.7,8.5c1.1,4.2,3.7,6.2,7.6,6.2c2.4-0.1,4.7-0.6,7-1.3l0.4-0.1
								c2.9-0.7,5.7-2,8.1-3.9c2.5-2.2,3.5-4.9,2.7-7.8C39.6,71.7,37.7,68.1,31.2,68.1L31.2,68.1z" class="st2"></path>
						</g>
						<path d="M34.8,70.6c0.2,0.4,0.4,0.8,0.5,1.2c1.2,4.6-3.6,7.7-9.3,9.2c-3.3,0.9-6.4,1.7-8.8,1.1
							c2.2,4,6.8,2.7,11.8,1.4c5.7-1.5,10.5-4.6,9.3-9.2C37.8,72.5,36.5,71.1,34.8,70.6z" class="st5"></path>
						<g>
							<path d="M29.3,96.9c-2.8,0-4.7-1.5-6.2-4.9c-0.8-1.5-0.9-3.2-0.3-4.7c1.2-2.6,4.8-3.6,8.3-4.6
								c1.6-0.5,3.3-0.7,5-0.8c4.5,0,6.1,2.4,6.7,4.4c1.2,4.2-1.9,7.8-8.1,9.5C32.9,96.4,31.1,96.8,29.3,96.9z" class="st3"></path>
							<path d="M36,82.9c2.8,0,5,1,5.7,3.7c1.1,4-2.5,6.9-7.4,8.2c-1.6,0.5-3.3,0.9-5.1,1c-2.2,0-3.8-1-5.3-4.3
								c-2.3-5.1,2.5-6.5,7.3-7.9C32.9,83.2,34.4,82.9,36,82.9 M36,80.9L36,80.9c-1.8,0-3.5,0.3-5.2,0.8c-3.5,1-7.5,2.1-8.9,5.1
								c-0.7,1.8-0.6,3.8,0.3,5.6c1.7,3.8,3.9,5.5,7.1,5.5c1.9-0.1,3.8-0.5,5.6-1.1c6.7-1.9,10.1-6,8.8-10.7
								C42.7,82.7,40,80.9,36,80.9L36,80.9z" class="st2"></path>
						</g>
						<path d="M39.1,83.6c0.2,0.4,0.4,0.8,0.5,1.2c1.1,4-2.5,6.9-7.4,8.2c-3,0.8-5.2,1.4-7.1,0.6c2.2,3.2,5,2.4,9.2,1.3
							c4.9-1.4,8.5-4.2,7.4-8.2C41.4,85.3,40.4,84.1,39.1,83.6z" class="st5"></path>
					</g>
					<path d="M77.6,56.9c0,0,5.8,3.4,6.8,5.9" class="st7"></path>
					<g>
						<path d="M59,154c-0.1,0-0.3,0-0.4-0.1c-0.2-0.1-0.4-0.3-0.5-0.5l-8.7-20.9c-0.2-0.4-0.1-0.8,0.2-1.1
							c0.2-0.2,0.4-0.3,0.7-0.3c0.1,0,0.2,0,0.4,0.1c2.1,0.6,4.3,0.8,6.4,0.8c5.9,0,16.1-1.4,31.7-7.8c27-11.2,31.8-21.9,31.9-22
							c0.2-0.4,0.5-0.6,0.9-0.6l0,0c0.4,0,0.8,0.2,0.9,0.6l28.8,43c0.2,0.5,0,1.1-0.5,1.3c0,0,0,0,0,0l-91.4,7.5
							C59.3,154,59.1,154,59,154z" class="st8"></path>
						<path d="M121.6,102.4l28.8,43L59,153l-8.7-20.9c2.2,0.7,4.5,0.9,6.8,0.8c6.1,0,16.5-1.4,32-7.9
							C117,113.4,121.6,102.4,121.6,102.4 M121.6,100.4L121.6,100.4c-0.8,0-1.5,0.5-1.8,1.2c-0.1,0.2-5,10.6-31.3,21.5
							c-15.4,6.4-25.5,7.7-31.3,7.7c-2,0.1-4.1-0.2-6.1-0.7c-0.2-0.1-0.5-0.1-0.7-0.1c-0.5,0-1.1,0.2-1.4,0.6
							c-0.6,0.6-0.7,1.4-0.4,2.1l8.7,20.9c0.2,0.5,0.6,0.9,1.1,1.1c0.2,0.1,0.5,0.1,0.8,0.1c0.3,0,0.5-0.1,0.8-0.1l91.4-7.5
							c0.5-0.2,0.9-0.6,1.1-1.1c0.2-0.5,0.2-1,0-1.5l-28.8-43C123.1,100.9,122.4,100.4,121.6,100.4L121.6,100.4z" class="st2"></path>
					</g>
				</g>
			</g>
		</g>
	</g>
</g>
</svg>
