<svg xml:space="preserve" style="enable-background:new 0 0 1200 1200;" viewBox="0 0 1200 1200" y="0px" x="0px" xmlns:xlink="http://www.w3.org/1999/xlink" xmlns="http://www.w3.org/2000/svg" id="图层_1" version="1.1">
<style type="text/css">
	.st0{fill:#E01B2F;}
	.st1{fill:#C40714;}
	.st2{fill:#7F0518;}
	.st3{clip-path:url(#SVGID_2_);}
	.st4{fill:#FFCE00;}
	.st5{clip-path:url(#SVGID_4_);}
	.st6{fill:#E88207;}
	.st7{fill:#FFA700;}
	.st8{fill:#EE5630;}
	.st9{clip-path:url(#SVGID_6_);fill:#E03512;}
	.st10{fill:#ED2B50;}
	.st11{fill:#FF9739;}
	.st12{fill:#FFDF5A;}
	.st13{fill:#FFF6DE;}
	.st14{fill:#DF3425;}
	.st15{fill:#FFCB27;stroke:#7F0518;stroke-width:18.0016;stroke-miterlimit:10;}
	.st16{fill:#FFCB27;}
	.st17{clip-path:url(#SVGID_8_);}
	.st18{fill:none;}
	.st19{fill:#FF9522;}
	.st20{clip-path:url(#SVGID_10_);}
	.st21{clip-path:url(#SVGID_12_);}
	.st22{clip-path:url(#SVGID_14_);}
	.st23{clip-path:url(#SVGID_16_);}
	.st24{fill:#FFC831;}
	.st25{fill:#FFFFFF;}
	.st26{fill:#FBCA85;}
	.st27{fill:#FF7517;}
</style>
<g>
	<g>
		<g>
			<g>
				<path d="M803.8,516.4l-255.9,135c-0.9,0.5-2.1,0.1-2.5-0.8l-164.7-312c-9-17.1-2.4-38.5,14.7-47.5l196.9-103.9
					c17.1-9,38.5-2.4,47.5,14.7l164.7,312C805.1,514.8,804.7,515.9,803.8,516.4z" class="st0"></path>
			</g>
			<g>
				<path d="M408.9,287.7c0,0-10.3,11.8-1.4,14.3l121.7,21.3l2.4,16.5l-155.4-24.7C376.2,315.1,373,294,408.9,287.7z" class="st1"></path>
			</g>
			<g>
				<path d="M399.3,294.5c1.4,0.2,144,272.9,144,272.9s19-30.3,51.4-47.9l-42.4,83.8l-4.1,26l2.2,13l-13.4-7.6
					L373.3,324.5C373.3,324.5,371.3,291.5,399.3,294.5z" class="st1"></path>
			</g>
			<g>
				<polygon points="558.8,350.8 378.3,318.1 379.8,309.5 553.2,340.9 614.9,182.1 623,185.3" class="st2"></polygon>
			</g>
			<g>
				<g>
					<defs>
						<path d="M803.8,516.4l-255.9,135c-0.9,0.5-2.1,0.1-2.5-0.8L377.3,332c-7.1-13.5-1.9-30.4,11.6-37.6l210-110.8
							c13.5-7.1,30.4-1.9,37.6,11.6l168.1,318.6C805.1,514.8,804.7,515.9,803.8,516.4z" id="SVGID_1_"></path>
					</defs>
					<clipPath id="SVGID_2_">
						<use style="overflow:visible;" xlink:href="#SVGID_1_"></use>
					</clipPath>
					<g class="st3">
						<g>
							
								<ellipse ry="148.1" rx="162" cy="624.7" cx="701.2" class="st4" transform="matrix(0.8844 -0.4667 0.4667 0.8844 -210.4997 399.4571)"></ellipse>
						</g>
						<g>
							<path d="M715.4,778.3c-65.6,9.9-131-18.5-161.4-75.9c-39.2-74.3-5.1-169.6,76-212.4s179.1-17.2,218.3,57.2
								c19,36.1,21.6,78.1,7.1,118.2c-14.4,40-43.9,73.5-83.2,94.2C753.9,769.2,734.7,775.4,715.4,778.3z M688.3,479.7
								c-18.3,2.8-36.7,8.6-54.2,17.9c-76.9,40.6-109.3,130.6-72.3,200.7s129.6,94.1,206.5,53.5c37.3-19.7,65.4-51.5,79-89.4
								c13.6-37.8,11.2-77.3-6.7-111.2C812.1,497,750.3,470.4,688.3,479.7z" class="st2"></path>
						</g>
					</g>
				</g>
				<g>
					<defs>
						<path d="M803.8,516.4l-255.9,135c-0.9,0.5-2.1,0.1-2.5-0.8L377.3,332c-7.1-13.5-1.9-30.4,11.6-37.6l210-110.8
							c13.5-7.1,30.4-1.9,37.6,11.6l168.1,318.6C805.1,514.8,804.7,515.9,803.8,516.4z" id="SVGID_3_"></path>
					</defs>
					<clipPath id="SVGID_4_">
						<use style="overflow:visible;" xlink:href="#SVGID_3_"></use>
					</clipPath>
					<g class="st5">
						<g>
							<path d="M593,695.6c-38.2-72.3-5-164.8,74.2-206.5c8.4-4.4,16.9-7.9,25.5-10.9c-19.1,2.8-38.2,8.7-56.4,18.4
								c-79.1,41.8-112.3,134.2-74.2,206.5c34.1,64.7,113.8,91.2,186.8,66.2C685.4,778.6,622.4,751.2,593,695.6z" class="st6"></path>
						</g>
					</g>
				</g>
			</g>
			<g>
				<path d="M565.7,646c-5.6,0.8-11.4,0.4-17.1-1.3c-9.8-3-17.9-9.7-22.6-18.7L374.6,339c-9.9-18.7-2.7-42,16-51.8
					l201.3-106.3c18.7-9.9,42-2.7,51.8,16l151.4,287c9.9,18.7,2.7,42-16,51.8L577.8,642C574,644.1,569.9,645.4,565.7,646z
					 M605.8,188.1c-2.9,0.4-5.8,1.4-8.5,2.8L395.9,297.2c-13.2,7-18.2,23.3-11.3,36.5l151.4,287c3.4,6.4,9,11,15.9,13.2
					c6.9,2.1,14.2,1.4,20.6-1.9l201.3-106.2c13.2-7,18.2-23.3,11.3-36.5l-151.4-287c-3.4-6.4-9-11-15.9-13.2
					C613.8,187.8,609.7,187.5,605.8,188.1z" class="st2"></path>
			</g>
			<g>
				
					<ellipse ry="37.6" rx="37.6" cy="338.2" cx="545.3" class="st7" transform="matrix(0.9648 -0.2629 0.2629 0.9648 -69.73 155.2563)"></ellipse>
				<path d="M545.3,380.2c-18.4,0-35.4-12.3-40.5-30.9c-2.9-10.8-1.5-22.1,4.1-31.8c5.6-9.7,14.6-16.7,25.4-19.6
					c10.8-3,22.1-1.5,31.8,4.1s16.7,14.6,19.7,25.4c2.9,10.8,1.5,22.1-4.1,31.8c-5.6,9.7-14.6,16.7-25.4,19.6
					C552.7,379.7,549,380.2,545.3,380.2z M545.4,305c-2.9,0-5.9,0.4-8.8,1.2c-8.6,2.3-15.7,7.9-20.1,15.6s-5.5,16.7-3.2,25.2
					c2.3,8.6,7.8,15.7,15.6,20.1c7.7,4.4,16.6,5.6,25.2,3.2c8.6-2.3,15.7-7.9,20.1-15.6c4.4-7.7,5.5-16.7,3.2-25.2
					c-2.3-8.6-7.8-15.7-15.6-20.1C556.7,306.5,551.1,305,545.4,305z" class="st2"></path>
			</g>
		</g>
		<g>
			<g>
				<path d="M610.2,484c-187.4,51-209.1,239.1-178.1,353.1c37.3,137,188.1,148.1,305.9,116S980.2,834.9,942.9,698
					C911.8,584,797.6,432.9,610.2,484L610.2,484z" class="st8"></path>
			</g>
			<g>
				<g>
					<defs>
						<path d="M610.2,484c-187.4,51-209.1,239.1-178.1,353.1c37.3,137,188.1,148.1,305.9,116S980.2,834.9,942.9,698
							C911.8,584,797.6,432.9,610.2,484L610.2,484z" id="SVGID_5_"></path>
					</defs>
					<clipPath id="SVGID_6_">
						<use style="overflow:visible;" xlink:href="#SVGID_5_"></use>
					</clipPath>
					<path d="M705.2,374.6c0,0,275.5,349,22.6,597.8s328.2-69.1,330.9-73.4c2.7-4.3-35.9-241-50.1-281.3
						c-14.2-40.3-60.1-167.5-96.9-178.8c-36.8-11.3-206.7-70-206.7-70" class="st9"></path>
				</g>
			</g>
			<g>
				<path d="M630.3,976.6c-91.7,0-178.7-35.4-206.4-137.2C392,722.1,414.7,528.5,608,475.8l0,0
					c108.7-29.6,186.4,9.1,232.5,46.7c51,41.7,92.3,106.4,110.5,173.2c17.6,64.8,1.6,125.3-46.3,175c-38.6,40-97,72.1-164.4,90.5
					C705.3,970.8,667.4,976.6,630.3,976.6z M612.5,492.1c-181.4,49.4-202.4,232.1-172.2,342.8C476,965.8,621.8,976,735.9,944.9
					c64.6-17.6,120.2-48.1,156.7-86c44.2-45.8,58.4-99.3,42.2-158.8c-17.3-63.5-56.5-125-104.9-164.6
					C768.1,485.2,693,470.2,612.5,492.1L612.5,492.1z" class="st2"></path>
			</g>
			<path d="M708.5,375.8c-21.1,5.4-40.1,13.3-54.8,22.2c-17.5-0.7-37.9,1.6-59.2,7c-21.1,5.4-40.1,13.3-54.8,22.2
				c-17.5-0.7-37.9,1.6-59.2,7c-55.2,14.2-94.4,44.7-87.6,68.3c6.8,23.5,57,31.1,112.3,17c21.1-5.4,40.1-13.3,54.8-22.2
				c17.5,0.7,37.9-1.6,59.2-7c21.1-5.4,40.1-13.3,54.8-22.2c17.5,0.7,37.9-1.6,59.2-7c53.1-13.6,91.5-42.4,88.2-65.5
				c-0.3-1.3-0.6-2.6-1-3.8C812.5,369,762.9,361.9,708.5,375.8L708.5,375.8z" class="st10"></path>
			<g>
				<path d="M732.9,473c-20.1,5.2-40.5,7.8-58.8,7.5c-15.7,9.1-34.6,16.5-54.8,21.7c-20.1,5.2-40.5,7.8-58.8,7.5
					c-15.7,9.1-34.6,16.5-54.8,21.7c-63.5,16.3-118.1,5.6-126.9-25c-8.8-30.6,32.4-65.9,95.9-82.2c20.1-5.2,40.5-7.7,58.8-7.5
					c15.7-9.1,34.6-16.5,54.8-21.7c20.2-5.2,40.5-7.7,58.8-7.5c15.7-9.1,34.6-16.5,54.8-21.7c27.8-7.1,55.5-9.3,78.1-6.1
					c25.8,3.7,42.8,14.1,48.1,29.3l0.2,0.8c0.4,1.4,0.7,2.9,1.1,4.4l0.1,0.8C833.8,424.6,793.1,457.5,732.9,473L732.9,473z
					 M667.4,457.4l3.8,0.1c17,0.6,36-1.7,55.3-6.6c53.3-13.7,80.5-39.7,79.3-52.7c-0.1-0.8-0.3-1.5-0.6-2.4
					c-5.1-12.7-44-21.8-96.9-8.2c-19.2,4.9-37,12.2-51.3,20.8l-3.2,1.9l-3.8-0.1c-17-0.6-36,1.7-55.3,6.6c-19.3,5-37,12.2-51.3,20.8
					l-3.2,1.9l-3.8-0.1c-17-0.6-36,1.7-55.3,6.6c-25,6.4-47.2,16.5-62.4,28.4c-12.1,9.4-18.4,19.4-16.5,25.9
					c1.9,6.5,12.7,12,28.2,14.4c19.5,3,44,1,69-5.4c19.2-4.9,37-12.2,51.3-20.8l3.2-1.9l3.8,0.1c17,0.6,36-1.7,55.3-6.6
					c19.2-4.9,37-12.2,51.3-20.8L667.4,457.4z" class="st2"></path>
			</g>
			<g>
				<g>
					<path d="M500.7,363.5c-55.9,15.2-88.9,72.9-73.6,128.8c15.2,55.9,72.9,88.9,128.8,73.6
						c55.9-15.2,88.9-72.9,73.6-128.8C614.3,381.2,556.6,348.2,500.7,363.5z M544.6,524.5c-8.7-31.9-41.7-50.8-73.6-42.1
						c31.9-8.7,50.8-41.7,42.1-73.6c8.7,31.9,41.7,50.8,73.6,42.1C554.7,459.6,535.9,492.6,544.6,524.5z" class="st11"></path>
					<path d="M528.3,575c-48.5,0-93.1-32.3-106.4-81.3c-16-58.7,18.7-119.4,77.4-135.4l0,0c28.4-7.7,58.2-3.9,83.7,10.7
						c25.6,14.6,43.9,38.3,51.7,66.7c16,58.7-18.7,119.4-77.4,135.4C547.6,573.7,537.9,575,528.3,575z M502.1,368.6
						c-52.9,14.4-84.3,69.2-69.9,122.2c14.4,52.9,69.3,84.3,122.2,69.9c52.9-14.4,84.3-69.2,69.9-122.2c-7-25.6-23.5-47-46.6-60.2
						C554.6,365.1,527.8,361.7,502.1,368.6L502.1,368.6z M539.4,525.9c-7.9-29-38-46.2-67-38.3l-2.8-10.4
						c14.1-3.8,25.8-12.9,33-25.6c7.2-12.6,9.1-27.4,5.3-41.4l10.4-2.8c7.9,29,38,46.2,67,38.3l2.8,10.4
						c-14.1,3.8-25.8,12.9-33,25.6s-9.1,27.4-5.3,41.4L539.4,525.9z M496.1,475.6c16.3,2.4,31.3,10.9,41.6,23.8
						c1.2-8,3.8-15.8,8-23.1c4.1-7.2,9.5-13.5,15.8-18.6c-16.3-2.4-31.3-10.9-41.6-23.8c-1.2,8-3.8,15.8-8,23.1
						C507.8,464.3,502.4,470.5,496.1,475.6z" class="st2"></path>
				</g>
				<g>
					<path d="M506.8,385.9c-43.5,11.9-69.2,56.7-57.3,100.3c11.9,43.5,56.7,69.2,100.3,57.3s69.2-56.7,57.3-100.3
						C595.2,399.7,550.3,374,506.8,385.9z M544.6,524.5c-8.7-31.9-41.7-50.8-73.6-42.1c31.9-8.7,50.8-41.7,42.1-73.6
						c8.7,31.9,41.7,50.8,73.6,42.1C554.7,459.6,535.9,492.6,544.6,524.5z" class="st12"></path>
					<path d="M528.2,549.5c-14.6,0-29-3.8-42-11.2c-19.7-11.2-33.8-29.5-39.7-51.3c-6-21.8-3-44.7,8.2-64.4
						c11.2-19.7,29.5-33.8,51.3-39.7l0,0c45.2-12.3,91.8,14.4,104.1,59.5c6,21.9,3,44.7-8.2,64.4c-11.2,19.7-29.5,33.8-51.3,39.7
						C543.2,548.5,535.6,549.5,528.2,549.5z M528.4,386.1c-6.9,0-13.9,0.9-20.8,2.8l0,0c-20.2,5.5-37.1,18.6-47.5,36.8
						c-10.4,18.2-13.1,39.4-7.6,59.6s18.6,37.1,36.8,47.5c18.2,10.4,39.4,13.1,59.6,7.6s37.1-18.6,47.5-36.8s13.1-39.4,7.6-59.6
						s-18.6-37.1-36.8-47.5C555.2,389.6,541.9,386.1,528.4,386.1z M541.6,525.3c-8.2-30.2-39.6-48.2-69.7-39.9l-1.7-6.1
						c14.6-4,26.9-13.4,34.4-26.6c7.5-13.2,9.5-28.5,5.5-43.1l6.1-1.7c8.2,30.2,39.6,48.1,69.7,39.9l1.7,6.1
						c-14.7,4-26.9,13.4-34.4,26.6s-9.5,28.5-5.5,43.1L541.6,525.3z M490,477.3c19.9,1.1,38.3,11.6,49.4,28.2
						c0.5-9.7,3.3-19.3,8.3-28s11.8-16,20-21.4c-19.9-1.1-38.3-11.6-49.4-28.2c-0.5,9.8-3.3,19.3-8.3,28S498.2,471.9,490,477.3z" class="st2"></path>
				</g>
				<g>
					<path d="M596.3,459.7c-2,0-3.8-1.6-4-3.6c-4.5-49.8-62.1-60.4-62.7-60.5c-2.2-0.4-3.6-2.4-3.3-4.6
						c0.4-2.2,2.2-3.7,4.6-3.3c0.6,0.1,64.2,11.7,69.3,67.6c0.2,2.2-1.4,4.1-3.6,4.3C596.5,459.7,596.4,459.7,596.3,459.7z" class="st13"></path>
				</g>
				<g>
					
						<ellipse ry="6.3" rx="6.3" cy="473.5" cx="593.8" class="st13" transform="matrix(0.9648 -0.2629 0.2629 0.9648 -103.5875 172.7686)"></ellipse>
				</g>
			</g>
			<g>
				<g>
					<path d="M663.7,339.9c-51.9,14.1-82.5,67.6-68.3,119.5c14.1,51.9,67.6,82.5,119.5,68.3
						c51.9-14.1,82.5-67.6,68.3-119.5C769.1,356.3,715.6,325.7,663.7,339.9z M704.4,489.4c-8.1-29.6-38.7-47.1-68.3-39.1
						c29.6-8.1,47.1-38.7,39.1-68.3c8.1,29.6,38.7,47.1,68.3,39.1C713.8,429.1,696.3,459.7,704.4,489.4z" class="st11"></path>
					<path d="M689.3,536.2c-45,0-86.4-30-98.8-75.5c-7.2-26.4-3.7-54,9.9-77.7c13.6-23.7,35.6-40.8,61.9-48
						c54.4-14.8,110.8,17.4,125.7,71.8c14.8,54.5-17.4,110.8-71.8,125.7C707.2,535,698.2,536.2,689.3,536.2z M689.2,341.4
						c-8,0-16.2,1.1-24.2,3.3c-23.8,6.5-43.7,21.8-55.9,43.3c-12.2,21.4-15.4,46.3-8.9,70.1c13.4,49.1,64.4,78.3,113.4,64.8
						c49.1-13.4,78.2-64.2,64.8-113.4C767.2,368.5,729.9,341.4,689.2,341.4z M699.6,490.7c-7.3-26.9-35.4-42.9-62.2-35.5l-2.6-9.7
						c13-3.6,23.9-12,30.7-23.7c6.7-11.7,8.5-25.4,4.9-38.4l9.7-2.6c3.6,13.1,12,23.9,23.7,30.7c11.8,6.7,25.4,8.5,38.4,4.9l2.6,9.7
						c-13,3.6-23.9,12-30.7,23.7c-6.7,11.7-8.5,25.4-4.9,38.4L699.6,490.7z M659.4,444c15.2,2.2,29.1,10.2,38.7,22.1
						c2.2-15.2,10.1-29.1,22.1-38.7c-7.4-1.1-14.7-3.6-21.4-7.4s-12.5-8.8-17.2-14.7c-1.1,7.4-3.6,14.7-7.4,21.4
						C670.3,433.4,665.3,439.3,659.4,444z" class="st2"></path>
				</g>
				<g>
					<path d="M669.3,360.7c-40.4,11-64.2,52.7-53.2,93c11,40.4,52.7,64.2,93,53.2c40.4-11,64.2-52.7,53.2-93
						C751.4,373.5,709.7,349.7,669.3,360.7z M704.4,489.4c-8.1-29.6-38.7-47.1-68.3-39.1c29.6-8.1,47.1-38.7,39.1-68.3
						c8.1,29.6,38.7,47.1,68.3,39.1C713.8,429.1,696.3,459.7,704.4,489.4z" class="st12"></path>
					<path d="M689.3,512.5c-34.6,0-66.4-23.1-76-58c-5.5-20.3-2.8-41.5,7.6-59.8c10.4-18.3,27.4-31.3,47.6-36.9l0,0
						c20.3-5.5,41.5-2.8,59.8,7.6s31.4,27.4,36.9,47.6c11.4,41.9-13.4,85.2-55.2,96.6C703.1,511.6,696.1,512.5,689.3,512.5z
						 M670.1,363.5c-18.8,5.1-34.4,17.2-44.1,34.1c-9.7,16.9-12.2,36.5-7,55.3c10.5,38.7,50.6,61.7,89.4,51.1
						c38.8-10.6,61.7-50.7,51.1-89.5c-5.1-18.8-17.2-34.4-34.1-44.1C708.5,360.9,688.8,358.4,670.1,363.5L670.1,363.5z M701.6,490.1
						c-7.6-28.1-36.8-44.6-64.7-37l-1.5-5.6c13.6-3.7,24.9-12.5,31.9-24.7s8.8-26.4,5.1-40l5.6-1.5c7.6,28,36.7,44.7,64.7,37
						l1.5,5.6c-28.1,7.6-44.7,36.7-37,64.7L701.6,490.1z M653.8,445.5c18.5,1,35.6,10.8,45.8,26.2c1-18.5,10.8-35.6,26.2-45.9
						c-18.5-1-35.6-10.7-45.8-26.2c-0.5,9.1-3.1,17.9-7.7,26C667.7,433.8,661.3,440.5,653.8,445.5z" class="st2"></path>
				</g>
				<g>
					<path d="M752.4,429.2c-1.9,0-3.5-1.5-3.7-3.4c-4.2-46.3-57.6-56-58.2-56.1c-2-0.3-3.4-2.3-3-4.3s2.2-3.5,4.3-3
						c0.6,0.1,59.6,10.9,64.3,62.8c0.2,2-1.3,3.8-3.4,4C752.6,429.2,752.5,429.2,752.4,429.2z" class="st13"></path>
				</g>
				<g>
					
						<ellipse ry="5.8" rx="5.8" cy="442" cx="750" class="st13" transform="matrix(0.9648 -0.2629 0.2629 0.9648 -89.8164 212.7256)"></ellipse>
				</g>
			</g>
			<g>
				<path d="M818.4,394.5c-1.7,0.9-3.8,3.3-7.2,6.4c-30.6,28.4-54.9,52.9-98.8,59.3c-17.9,2.6-37,1.8-54.2,8.3
					c-17,6.3-32,15.3-49.8,20.2c-21.6,5.9-42.6,8.3-60.5,7.7c-15.1,9.7-34.3,18.2-56,24.1c-17.3,4.7-35.3,8.1-53.3,7.9
					c-14.5-0.2-30.2-13.8-45.2-8.6c9.1,15.4,22.7,36.9,36.3,49.1c18.1,16.3,38.6,29.9,60.6,40.4c42.4,20.3,296.9-75.5,297.1-75.6
					c5.1-2.1,13.2-24.4,16.1-30c6.6-12.8,12.9-25.8,17.6-39.5c4.4-12.9,8.3-26.8,8.7-40.5c0.2-6.8,0.5-15.7-3.1-21.8
					C822.8,394.9,821,393.1,818.4,394.5z" class="st14"></path>
				<path d="M507.6,620.3c-8.8,0-15.9-1-20.8-3.4c-22.8-10.9-43.8-25-62.6-41.8c-14.5-13-28.6-35.4-37.9-51.1l-5.3-8.9
					l9.8-3.4c11.7-4.1,22.8,0.1,32.6,3.8c5.7,2.2,11,4.2,15.5,4.2c15.3,0.2,31.7-2.3,51-7.6c20.3-5.5,38.9-13.5,53.6-23l2.2-1.4
					l2.6,0.1c17.9,0.6,37.9-1.9,57.9-7.4c10.1-2.8,19.3-7,29.1-11.4c6.5-3,13.1-6,20-8.5c12.8-4.8,26.1-5.9,38.9-6.9
					c5.7-0.5,11.4-0.9,17-1.8c39.1-5.7,61.4-26.5,89.6-52.8l7.3-6.9c2.2-2.2,4-3.9,6.2-5.1c10.4-5.6,16.7,5.3,19.8,10.6
					c4.8,8.1,4.5,18.6,4.3,26.2c-0.4,15.8-5.1,31.4-9.2,43.1c-5,14.6-11.7,28.1-18.1,40.6c-0.7,1.3-1.6,3.6-2.8,6.3
					c-7.5,17.4-11.6,25.1-17.5,27.6C788.6,542.4,583.9,620.3,507.6,620.3z M408.8,528.4c7.9,12.4,17.4,25.8,26.7,34.2
					c17.5,15.8,37.3,28.9,58.6,39.1c30.3,14.4,207.2-44.3,289.4-75.5c2.6-3.1,7.3-14.2,9.4-19c1.4-3.2,2.5-5.8,3.3-7.4
					c6.2-11.9,12.5-24.8,17.1-38.4c3.7-10.6,7.9-24.6,8.3-38c0.2-5.6,0.4-13.3-2-17.3c-0.2-0.3-0.4-0.7-0.6-1l-6.6,6.2
					c-29.2,27.2-54.4,50.7-98.7,57.2c-5.9,0.9-12,1.4-18.1,1.9c-12.3,1-23.8,2-34.4,5.9c-6.5,2.4-12.7,5.3-18.9,8.1
					c-9.9,4.5-20.2,9.2-31.6,12.3c-20.7,5.6-41.5,8.5-60.3,8c-15.8,9.8-35.1,18-56.1,23.7c-20.9,5.7-39.3,8-55.6,8.2
					c-7.5-0.1-14.6-2.8-21.4-5.4C414.4,530.3,411.6,529.2,408.8,528.4z" class="st2"></path>
			</g>
			<path d="M497.8,571.2" class="st15"></path>
			<path d="M445.6,583.4c0,0,95.8,13.4,200.3-20.8c104.4-34.3,169.6-82.3,169.6-82.3l23.9,34.8
				c0,0-64.4,70.8-190.6,104.8c-114.7,31-212,6-217.4,4.4C426,622.7,445.6,583.4,445.6,583.4L445.6,583.4z" class="st16"></path>
			<g>
				<g>
					<defs>
						<path d="M437.1,588c0,0,100.1,14,209.3-21.8c109.1-35.8,177.2-86,177.2-86l25,36.4c0,0-67.3,73.9-199.2,109.5
							c-119.8,32.4-221.5,6.3-227.1,4.6C416.7,629.1,437.1,588,437.1,588L437.1,588z" id="SVGID_7_"></path>
					</defs>
					<clipPath id="SVGID_8_">
						<use style="overflow:visible;" xlink:href="#SVGID_7_"></use>
					</clipPath>
					<g class="st17">
						<line y2="653.7" x2="487" y1="560.9" x1="508.2" class="st18"></line>
						
							<rect height="33.8" width="95.2" class="st19" transform="matrix(0.2229 -0.9748 0.9748 0.2229 -205.3494 957.0042)" y="590.4" x="450"></rect>
					</g>
				</g>
				<g>
					<defs>
						<path d="M437.1,588c0,0,100.1,14,209.3-21.8c109.1-35.8,177.2-86,177.2-86l25,36.4c0,0-67.3,73.9-199.2,109.5
							c-119.8,32.4-221.5,6.3-227.1,4.6C416.7,629.1,437.1,588,437.1,588L437.1,588z" id="SVGID_9_"></path>
					</defs>
					<clipPath id="SVGID_10_">
						<use style="overflow:visible;" xlink:href="#SVGID_9_"></use>
					</clipPath>
					<g class="st20">
						<line y2="651.4" x2="553.2" y1="558.6" x1="574.4" class="st18"></line>
						
							<rect height="33.8" width="95.2" class="st19" transform="matrix(0.2229 -0.9748 0.9748 0.2229 -151.6622 1019.7421)" y="588.1" x="516.2"></rect>
					</g>
				</g>
				<g>
					<defs>
						<path d="M437.1,588c0,0,100.1,14,209.3-21.8c109.1-35.8,177.2-86,177.2-86l25,36.4c0,0-67.3,73.9-199.2,109.5
							c-119.8,32.4-221.5,6.3-227.1,4.6C416.7,629.1,437.1,588,437.1,588L437.1,588z" id="SVGID_11_"></path>
					</defs>
					<clipPath id="SVGID_12_">
						<use style="overflow:visible;" xlink:href="#SVGID_11_"></use>
					</clipPath>
					<g class="st21">
						<line y2="621.9" x2="744.6" y1="537.7" x1="691.8" class="st18"></line>
						
							<rect height="99.5" width="35.3" class="st19" transform="matrix(0.8474 -0.531 0.531 0.8474 -198.2491 469.9014)" y="530.1" x="700.7"></rect>
					</g>
				</g>
				<g>
					<defs>
						<path d="M437.1,588c0,0,100.1,14,209.3-21.8c109.1-35.8,177.2-86,177.2-86l25,36.4c0,0-67.3,73.9-199.2,109.5
							c-119.8,32.4-221.5,6.3-227.1,4.6C416.7,629.1,437.1,588,437.1,588L437.1,588z" id="SVGID_13_"></path>
					</defs>
					<clipPath id="SVGID_14_">
						<use style="overflow:visible;" xlink:href="#SVGID_13_"></use>
					</clipPath>
					<g class="st22">
						<line y2="592.2" x2="809" y1="507.9" x1="756.2" class="st18"></line>
						
							<rect height="99.5" width="35.3" class="st19" transform="matrix(0.8474 -0.531 0.531 0.8474 -172.6466 499.5643)" y="500.4" x="765.1"></rect>
					</g>
				</g>
				<g>
					<defs>
						<path d="M437.1,588c0,0,100.1,14,209.3-21.8c109.1-35.8,177.2-86,177.2-86l25,36.4c0,0-67.3,73.9-199.2,109.5
							c-119.8,32.4-221.5,6.3-227.1,4.6C416.7,629.1,437.1,588,437.1,588L437.1,588z" id="SVGID_15_"></path>
					</defs>
					<clipPath id="SVGID_16_">
						<use style="overflow:visible;" xlink:href="#SVGID_15_"></use>
					</clipPath>
					<g class="st23">
						<line y2="647" x2="638.8" y1="552" x1="632.4" class="st18"></line>
						
							<rect height="95.2" width="33.8" class="st19" transform="matrix(0.9978 -6.680635e-02 6.680635e-02 0.9978 -38.6319 43.8029)" y="551.9" x="618.7"></rect>
					</g>
				</g>
			</g>
			<path d="M530.2,644.4c-60.2,0-100.7-11.3-101.4-11.5l-4-1.2l-2.4-4.5c-1.4-3.3-4.1-9.4,15.1-47.9l2.9-5.8l6.4,0.9
				c0.9,0.1,95.1,12.7,196.2-20.5c101.7-33.4,166.4-80.5,167.1-81l7.5-5.5l33.2,48.4l-4.8,5.3c-2.7,3-67.7,73.1-194.9,107.4
				C606.8,640.6,565.2,644.4,530.2,644.4z M440.7,617.3c24,5.2,108.9,20.1,205.8-6.1c102.9-27.8,164.2-80.7,181.3-97.2l-14.6-21.2
				c-20.2,13.6-79.1,50.2-164.5,78.3c-90.9,29.8-174.1,24.3-197.8,22C446.7,602,442.7,611.4,440.7,617.3z" class="st2"></path>
			<g>
				<path d="M355.4,860.3C329.5,739,393,635.6,418.8,599.8c5.3-7.4,15.7-8.5,22.7-2.7l0.1,0.1
					c6.2,5.3,7.3,14.4,2.6,21.1c-22.7,32.1-80.7,127.1-58.3,234.7c1.7,8.3-2.9,16.5-11.1,18.7l0,0
					C366.2,874,357.2,868.9,355.4,860.3z" class="st24"></path>
				<path d="M370.6,880.7c-4.4,0-8.8-1.2-12.6-3.5c-5.6-3.4-9.5-8.8-10.8-15.1l0,0c-26.3-123.4,36.5-228,64.8-267.2
					c3.9-5.4,9.9-8.9,16.4-9.7c6.7-0.9,13.4,1.2,18.5,5.5c9.8,8.2,11.5,22.2,4.2,32.5c-24.2,34.3-78.4,125.1-57,228.1
					c2.6,12.7-4.9,25.2-17.1,28.6C374.9,880.4,372.7,880.7,370.6,880.7z M363.6,858.5c0.5,2.3,2.1,3.6,3.1,4.2
					c1.7,1.1,3.9,1.3,5.8,0.8c3.7-1,5.9-4.8,5-8.9c-22.8-109.5,34.2-205.2,59.7-241.3c2.2-3.1,1.7-7.3-1.2-9.7
					c-1.7-1.4-3.7-2-5.7-1.8c-1.9,0.2-3.7,1.2-4.8,2.8C398.7,642.1,338.7,741.7,363.6,858.5L363.6,858.5z" class="st2"></path>
			</g>
			<g>
				<path d="M281.4,821c15.9-123,110.2-199.4,146.4-224.6c7.4-5.2,17.7-2.8,22.3,5l0.1,0.1c4.1,7,2.1,16-4.6,20.7
					c-32.1,22.7-118.4,93-133.1,201.9c-1.1,8.4-8.2,14.6-16.7,14l0,0C287.1,837.5,280.3,829.7,281.4,821z" class="st24"></path>
				<path d="M297,846.6c-0.6,0-1.1,0-1.7-0.1c-6.6-0.5-12.9-3.7-17.1-8.9c-4.2-5.1-6-11.4-5.2-17.8l0,0
					C289.3,694.7,383.3,617,423,589.4c5.5-3.8,12.3-5.1,18.7-3.7c6.5,1.4,12.2,5.6,15.6,11.4c6.5,11,3.5,24.7-6.9,32
					C416.2,653.4,335,721,320.9,825.3C319.3,837.6,308.9,846.6,297,846.6z M289.8,822.1c-0.3,2.4,0.8,4.1,1.5,5
					c1.3,1.6,3.2,2.6,5.2,2.7c4.4,0.4,7.1-2.6,7.7-6.7c15-110.9,100.5-182.2,136.6-207.7c3.1-2.2,4.1-6.3,2.1-9.6
					c-1.1-1.9-2.8-3.1-4.8-3.6c-2-0.4-3.9,0-5.5,1.1C394.8,629.6,305.1,703.6,289.8,822.1L289.8,822.1z" class="st2"></path>
			</g>
			<g>
				
					<ellipse ry="36.7" rx="36.7" cy="871.7" cx="374.7" class="st16" transform="matrix(0.9648 -0.2629 0.2629 0.9648 -215.9865 129.179)"></ellipse>
				<path d="M374.7,916.9c-19.9,0-38.1-13.2-43.6-33.3c-6.5-24,7.7-48.9,31.7-55.5s48.9,7.7,55.5,31.7l0,0
					c6.5,24-7.7,48.9-31.7,55.5C382.6,916.3,378.7,916.9,374.7,916.9z M374.7,843.4c-2.5,0-5,0.3-7.4,1c-15.1,4.1-24,19.7-19.9,34.7
					s19.7,24,34.7,19.9c15.1-4.1,24-19.7,19.9-34.7C398.6,851.7,387.2,843.4,374.7,843.4z" class="st2"></path>
			</g>
			<g>
				
					<ellipse ry="6.6" rx="6.6" cy="857.9" cx="362.1" class="st25" transform="matrix(0.9648 -0.2629 0.2629 0.9648 -212.7989 125.3762)"></ellipse>
			</g>
			<g>
				
					<ellipse ry="36.7" rx="36.7" cy="858" cx="285.2" class="st16" transform="matrix(0.9648 -0.2629 0.2629 0.9648 -215.534 105.1671)"></ellipse>
				<path d="M285.2,903.2c-7.8,0-15.4-2-22.4-6c-10.5-6-18-15.7-21.2-27.3s-1.6-23.8,4.4-34.3s15.7-18,27.3-21.2
					s23.8-1.6,34.3,4.4s18,15.7,21.2,27.3s1.6,23.8-4.4,34.3s-15.7,18-27.4,21.2C293.2,902.6,289.1,903.2,285.2,903.2z M285.3,829.7
					c-2.5,0-5,0.3-7.5,1c-7.3,2-13.4,6.7-17.1,13.3c-3.8,6.6-4.7,14.2-2.7,21.5c2,7.3,6.7,13.4,13.2,17.1c6.6,3.7,14.2,4.7,21.5,2.7
					s13.4-6.7,17.1-13.3c3.8-6.6,4.7-14.2,2.7-21.5l0,0c-2-7.3-6.7-13.4-13.2-17.1C294.9,830.9,290.1,829.7,285.3,829.7z" class="st2"></path>
			</g>
			<g>
				
					<ellipse ry="6.6" rx="6.6" cy="844.2" cx="272.6" class="st25" transform="matrix(0.9648 -0.2629 0.2629 0.9648 -212.3463 101.3643)"></ellipse>
			</g>
		</g>
	</g>
	<g>
		<g>
			<path d="M661.7,830.6l-37.8,8l-5.7-27.1l37.8-8l-1.4-6.4l-37.8,8l-5.7-27.1l24.5-5.2l-59.3-68.4l21.1-4.5
				c2.7-0.6,5.4-0.9,8.2-0.9c12.4,0,24.3,6,31.7,16l31.8,43l11.1-51.9c3.2-15.2,15.2-27.1,30.4-30.3l19.7-4.2l-26.4,86.6l24.3-5.2
				l5.7,27.1l-37.8,8l1.4,6.4l37.8-8l5.7,27.1l-37.8,8l7.9,37.3l-41.4,8.8L661.7,830.6z" class="st26"></path>
			<path d="M724.1,677.3L697.7,764l27.1-5.8l4,18.9l-37.6,8l-0.2,0.3l3,14.3l37.8-8l4,18.9l-37.8,8l7.9,37.3l-33.2,7
				l-7.9-37.3l-37.8,8l-4-18.9l37.8-8l-3.1-14.5l-37.8,8l-4-18.9l27.4-5.8L584,707.1l14.2-3c2.4-0.5,4.9-0.8,7.3-0.8
				c11,0,21.6,5.2,28.3,14.3l37.3,50.5l13-60.9c2.9-13.6,13.5-24.2,27.1-27.1L724.1,677.3 M736.2,666.2l-13.8,2.9l-12.8,2.7
				c-16.8,3.6-30,16.7-33.6,33.5l-9.1,42.8l-26.3-35.6c-8.2-11.1-21.3-17.7-35-17.7c-3,0-6.1,0.3-9,1l-14.2,3l-13.8,2.9l9.3,10.7
				l50.1,57.7l-13.5,2.9l-8.2,1.7l1.7,8.2l4,18.9l1.4,6.4l0,0l1.7,8.2l4,18.9l1.7,8.2l8.2-1.7l29.6-6.3l6.2,29.1l1.7,8.2l8.2-1.7
				l33.2-7l8.2-1.7l-1.7-8.2L708,825l29.6-6.3l8.2-1.7l-1.7-8.2l-4-18.9l-1.4-6.4l0,0l-1.7-8.2l-4-18.9l-1.7-8.2l-8.2,1.7l-13.3,2.8
				l22.3-73.1L736.2,666.2L736.2,666.2z" class="st2"></path>
		</g>
	</g>
</g>
<g>
	<g>
		<g>
			<g>
				<path d="M501.2,985.5h-8.5c0-29.1-38.1-52.8-84.9-52.8v-5.3c46.8,0,84.9-23.7,84.9-52.8h8.5
					c0,29.1,38.1,52.8,84.9,52.8v5.3C539.2,932.6,501.2,956.3,501.2,985.5z M435.7,930c29.1,5.7,52.1,20,61.2,38.1
					C506,950,529,935.7,558.1,930c-29.1-5.7-52.1-20-61.2-38.1C487.8,910,464.8,924.3,435.7,930z" class="st2"></path>
			</g>
			<g>
				<path d="M533.4,881c-5.3,10.5-15.3,19.6-28.3,26.6c-18.2-7.3-32.2-18.4-38.8-31.5c-9.1,18.1-32.1,32.4-61.2,38.1
					c29.1,5.7,52.1,20,61.2,38.1c5.3-10.5,15.3-19.6,28.3-26.6c18.2,7.3,32.2,18.4,38.8,31.5c9.1-18.1,32.1-32.4,61.2-38.1
					C565.5,913.4,542.5,899.1,533.4,881z" class="st27"></path>
				<path d="M533.4,962.1l-2-3.9c-6.1-12.2-19.2-22.8-36.7-30c-12.5,6.9-21.7,15.6-26.5,25.2l-2,3.9l-2-3.9
					c-8.9-17.6-31.2-31.4-59.7-36.9l-11.1-2.2l11.1-2.2c28.5-5.6,50.8-19.4,59.7-36.9l2-3.9l2,3.9c6.1,12.2,19.1,22.8,36.7,30.1
					c12.5-6.9,21.7-15.6,26.5-25.2l2-3.9l2,3.9c8.8,17.6,31.1,31.4,59.7,36.9l11.1,2.2l-11.1,2.2c-28.5,5.6-50.8,19.4-59.7,36.9
					L533.4,962.1z M494.5,923.3l0.9,0.4c17.3,6.9,30.6,17.2,38,29c9.3-15.1,27.9-27.2,51.5-33.6c-23.6-6.4-42.2-18.5-51.5-33.6
					c-5.7,9.2-15.1,17.5-27.3,24l-0.9,0.5l-0.9-0.4c-17.3-7-30.7-17.2-38-29c-9.3,15.1-27.9,27.2-51.5,33.6
					c23.6,6.4,42.2,18.5,51.5,33.6c5.7-9.2,15-17.5,27.3-24L494.5,923.3z" class="st2"></path>
			</g>
			<g>
				<path d="M499.1,886c-82.3,0-149,35.1-149,78.4s66.7,78.4,149,78.4s149-35.1,149-78.4S581.4,886,499.1,886z
					 M496.9,968.1c-9.1-18.1-32.1-32.4-61.2-38.1c29.1-5.7,52.1-20,61.2-38.1C506,910,529,924.3,558.1,930
					C529,935.7,506,950,496.9,968.1z" class="st27"></path>
				<path d="M499.1,1049.5c-87.3,0-155.6-37.3-155.6-85c0-47.1,66.6-84.1,152.3-85l1.1-2.2l1.1,2.2c0.4,0,0.7,0,1.1,0
					c87.3,0,155.6,37.3,155.6,85C654.7,1012.1,586.4,1049.5,499.1,1049.5z M488.8,892.8c-72.6,2.8-132.1,34.5-132.1,71.6
					c0,38.9,65.2,71.8,142.4,71.8s142.4-32.9,142.4-71.8c0-38-62-70.2-136.6-71.8c9.4,14.4,29.7,26,54.4,30.8l33.2,6.5l-33.2,6.5
					c-26.8,5.2-48.5,18.5-56.6,34.6l-5.9,11.7l-5.9-11.7c-8.1-16.1-29.8-29.4-56.6-34.6l-33.2-6.5l33.2-6.5
					C459,918.7,479.3,907.1,488.8,892.8z M459.5,930c15.9,6.2,28.9,15.2,37.4,25.9c8.5-10.8,21.4-19.7,37.4-25.9
					c-15.9-6.2-28.9-15.2-37.4-25.9C488.4,914.8,475.4,923.8,459.5,930z" class="st2"></path>
			</g>
			<g>
				<path d="M499.1,849.7c-82.3,0-149,35.1-149,78.4s66.7,78.4,149,78.4s149-35.1,149-78.4S581.4,849.7,499.1,849.7z
					 M495.2,965c-9-14.8-27.4-26.8-50.8-33c-2.2-0.6-2.2-3.5,0-4c23.3-6.2,41.8-18.2,50.8-33c0.8-1.4,2.6-1.4,3.4,0
					c9,14.8,27.4,26.8,50.8,33c2.2,0.6,2.2,3.5,0,4c-23.3,6.2-41.8,18.2-50.8,33C497.8,966.4,496,966.4,495.2,965z" class="st12"></path>
				<path d="M499.1,1013.2c-87.3,0-155.6-37.3-155.6-85s68.3-85,155.6-85s155.6,37.3,155.6,85
					C654.7,975.8,586.4,1013.2,499.1,1013.2z M499.1,856.3c-77.2,0-142.4,32.9-142.4,71.8c0,38.9,65.2,71.8,142.4,71.8
					s142.4-32.9,142.4-71.8C641.6,889.2,576.3,856.3,499.1,856.3z M496.9,972.6c-3,0-5.7-1.6-7.3-4.2l0,0
					c-8.1-13.3-25.1-24.3-46.8-30.1c-3.9-1-6.5-4.4-6.5-8.4s2.6-7.4,6.5-8.4c21.7-5.8,38.8-16.7,46.8-30.1c3.2-5.3,11.5-5.3,14.7,0
					c8.1,13.3,25.1,24.3,46.8,30.1c3.9,1,6.5,4.4,6.5,8.4s-2.6,7.3-6.5,8.4c-21.7,5.8-38.7,16.7-46.8,30
					C502.7,971.1,499.9,972.6,496.9,972.6z M500.8,961.6L500.8,961.6L500.8,961.6L500.8,961.6z M459.5,930c15.9,6.2,29,15.2,37.4,26
					c8.5-10.7,21.5-19.7,37.4-26c-15.9-6.2-29-15.2-37.4-26C488.5,914.7,475.4,923.8,459.5,930z M547.7,925.6L547.7,925.6
					L547.7,925.6z" class="st2"></path>
			</g>
		</g>
		<g>
			<path d="M377.1,949.6c-2.5,0-4.9-1.4-6-3.9c-4.7-10.5-4.7-20.9,0.1-30.9c15.2-31.8,75.5-47.7,78-48.4
				c3.6-0.9,7.1,1.2,8,4.7s-1.2,7.1-4.7,8c-15.8,4.1-59,19.6-69.5,41.4c-3.1,6.4-3.1,12.9,0,19.8c1.5,3.3,0,7.2-3.3,8.7
				C378.9,949.4,378,949.6,377.1,949.6z" class="st13"></path>
		</g>
		<g>
			<ellipse ry="7.5" rx="7.6" cy="868.6" cx="468.9" class="st13"></ellipse>
		</g>
	</g>
</g>
</svg>
