<svg xml:space="preserve" style="enable-background:new 0 0 1200 1200;" viewBox="0 0 1200 1200" y="0px" x="0px" xmlns:xlink="http://www.w3.org/1999/xlink" xmlns="http://www.w3.org/2000/svg" id="图层_1" version="1.1">
<style type="text/css">
	.st0{fill:#E01B2F;}
	.st1{fill:#C40714;}
	.st2{fill:#7F0518;}
	.st3{fill:#FFA700;}
	.st4{clip-path:url(#SVGID_2_);}
	.st5{fill:#FFCE00;}
	.st6{fill:#E88207;}
	.st7{clip-path:url(#SVGID_4_);}
</style>
<g>
	<g>
		<path d="M921.1,877.4L556.8,777.3c-1-0.3-1.6-1.3-1.3-2.3l133.6-486.3c5.6-20.5,27-32.7,47.6-27.1l320.3,88
			c20.5,5.6,32.7,27,27.1,47.6L957.8,856.5C953.5,872.3,936.9,881.7,921.1,877.4z" class="st0"></path>
	</g>
	<g>
		<path d="M763.7,274c0,0-21.8,2.1-15.2,13.2l103.7,138.1l-13.3,19.1L704.1,270.6C704.1,270.6,721.1,246,763.7,274z" class="st1"></path>
	</g>
	<g>
		<path d="M747.4,271.7c1.3,1.5-114.2,415.8-114.2,415.8s48.4-12.7,98.2,0.3L608,732.6l-29,22.6l-10.2,15.4l-6.4-20.6
			l129.9-472.7C692.2,277.3,721.8,241.8,747.4,271.7z" class="st1"></path>
	</g>
	<g>
		<polygon points="856.1,481.5 703.4,275.6 713.2,268.4 859.9,466.2 1074.6,363.3 1079.9,374.3" class="st2"></polygon>
	</g>
	<g>
		<g>
			<path d="M926.8,534.9c0-0.1,14.1-70.3-46.3-90.1c-62-13.9-85.8,53.8-85.8,53.8c-1.8,5.1-4.2,10.2-0.5,15.2
				c3,4.1,8.6,5.6,13.3,6.4c5.8,1,11.8,1,17.6,0.8c7.2-0.4,14.4-2.5,21.6-1.3c7.8,1.3,15.5,3.2,22.8,6.3c12.7,5.4,22.4,16.1,35.3,21
				c4.5,1.7,10.1,3.3,14.7,1.3C925.1,545.9,925.7,540.2,926.8,534.9z" class="st3"></path>
			<path d="M914.6,555.3c-4.3,0-8.5-1.3-12.1-2.6c-7.5-2.8-13.7-7.3-19.8-11.5c-5.3-3.7-10.3-7.2-15.8-9.6
				c-6-2.5-12.8-4.4-21.5-5.9c-3.8-0.6-7.9-0.1-12.2,0.5c-2.7,0.4-5.3,0.7-8,0.9c-5.2,0.2-12,0.4-19-0.8c-5.3-0.9-12.8-2.9-17.2-8.8
				c-5.3-7.1-2.6-14.6-0.8-19.5c1.5-4.4,27.5-73.8,93.4-59.1c64.6,21.1,51.5,94.1,51,97.2l0,0.1l-6-1.2l5.7,2.5
				c-1,5.5-2.5,13-10.6,16.4C919.5,554.9,917,555.3,914.6,555.3z M841.9,513.2c1.9,0,3.8,0.1,5.7,0.5c9.6,1.6,17.3,3.8,24.1,6.7
				c6.7,2.8,12.5,6.9,18,10.8c5.7,4,11.1,7.8,17.1,10.1c3,1.1,7.5,2.6,10.2,1.4c1.9-0.8,2.5-2.4,3.4-7.5l6.2-0.2l-6.1-0.6l0.1-0.6
				c0.5-2.7,11.7-65.5-42.2-83.1c-54.9-12.2-77.3,47.5-78.2,50.1c-2.2,6.3-2.6,7.9-1.4,9.6c2,2.7,7.6,3.7,9.5,4
				c5.7,1,11.7,0.9,16.2,0.7c2.3-0.1,4.6-0.4,6.9-0.8C835,513.7,838.4,513.2,841.9,513.2z" class="st2"></path>
		</g>
		<g>
			
				<ellipse ry="18.6" rx="18.6" cy="437" cx="781.6" class="st3" transform="matrix(0.2649 -0.9643 0.9643 0.2649 153.1679 1074.8368)"></ellipse>
			<path d="M781.6,461.7c-2.2,0-4.4-0.3-6.6-0.9c-13.1-3.6-20.9-17.2-17.3-30.4c1.7-6.4,5.9-11.7,11.6-14.9
				c5.7-3.3,12.4-4.1,18.8-2.3c6.4,1.7,11.7,5.9,14.9,11.6c3.3,5.7,4.1,12.4,2.3,18.8l0,0c-1.7,6.4-5.9,11.7-11.6,14.9
				C790,460.6,785.8,461.7,781.6,461.7z M781.5,424.4c-2.1,0-4.3,0.6-6.2,1.6c-2.9,1.7-5,4.3-5.9,7.6c-1.8,6.7,2.1,13.6,8.8,15.4
				c3.2,0.9,6.6,0.4,9.5-1.2c2.9-1.7,5-4.3,5.9-7.6v0c0.9-3.2,0.5-6.6-1.2-9.5s-4.3-5-7.6-5.9C783.8,424.6,782.7,424.4,781.5,424.4z" class="st2"></path>
		</g>
		<g>
			
				<ellipse ry="18.6" rx="18.6" cy="409.8" cx="848" class="st3" transform="matrix(0.2649 -0.9643 0.9643 0.2649 228.1989 1118.8544)"></ellipse>
			<path d="M848,434.5c-2.2,0-4.4-0.3-6.6-0.9c-6.3-1.7-11.7-5.9-14.9-11.6c-3.3-5.7-4.1-12.4-2.3-18.8
				c3.7-13.1,17.4-20.9,30.4-17.3c13.2,3.6,20.9,17.3,17.3,30.4l0,0c-1.7,6.4-5.9,11.7-11.6,14.9C856.4,433.4,852.2,434.5,848,434.5
				z M848,397.2c-5.5,0-10.6,3.7-12.1,9.2c-0.9,3.2-0.5,6.6,1.2,9.5c1.7,2.9,4.3,5,7.6,5.9c3.3,0.9,6.6,0.5,9.5-1.2
				c2.9-1.7,5-4.3,5.9-7.6c1.8-6.7-2.1-13.6-8.8-15.4C850.2,397.4,849.1,397.2,848,397.2z" class="st2"></path>
		</g>
		<g>
			
				<ellipse ry="18.6" rx="18.6" cy="427.9" cx="921.9" class="st3" transform="matrix(0.2649 -0.9643 0.9643 0.2649 265.0018 1203.5248)"></ellipse>
			<path d="M921.9,452.7c-2.2,0-4.4-0.3-6.5-0.9c-6.4-1.7-11.7-5.9-14.9-11.6c-3.3-5.7-4.1-12.4-2.3-18.8
				c1.7-6.4,5.9-11.7,11.6-14.9c5.7-3.3,12.4-4.1,18.8-2.3c6.3,1.7,11.7,5.9,14.9,11.6c3.3,5.7,4.1,12.4,2.3,18.8l0,0
				C942.7,445.5,932.7,452.7,921.9,452.7z M921.9,415.4c-2.2,0-4.3,0.6-6.2,1.6c-2.9,1.7-5,4.3-5.9,7.6c-0.9,3.2-0.5,6.6,1.2,9.5
				c1.7,2.9,4.3,5,7.6,5.9c6.8,1.7,13.6-2.1,15.4-8.8c0.9-3.2,0.5-6.6-1.2-9.5s-4.3-5-7.6-5.9C924.1,415.6,923,415.4,921.9,415.4z" class="st2"></path>
		</g>
		<g>
			
				<ellipse ry="18.6" rx="18.6" cy="489.8" cx="958.2" class="st3" transform="matrix(0.2649 -0.9643 0.9643 0.2649 231.9891 1284.0031)"></ellipse>
			<path d="M958.2,514.6c-2.2,0-4.4-0.3-6.6-0.9c-6.4-1.7-11.7-5.9-15-11.6c-3.3-5.7-4.1-12.4-2.3-18.8
				c1.7-6.3,5.9-11.7,11.6-14.9c5.7-3.3,12.4-4.1,18.8-2.3c13.2,3.6,20.9,17.2,17.3,30.4c-1.7,6.4-5.9,11.7-11.6,14.9
				C966.6,513.5,962.4,514.6,958.2,514.6z M958.1,477.3c-2.1,0-4.2,0.6-6.2,1.7c-2.9,1.7-5,4.3-5.9,7.6c-0.9,3.2-0.5,6.6,1.2,9.5
				c1.7,2.9,4.3,5,7.6,5.9c3.3,0.9,6.6,0.5,9.5-1.2c2.9-1.7,5-4.3,5.9-7.6l0,0c1.8-6.7-2.1-13.6-8.8-15.4
				C960.4,477.5,959.3,477.3,958.1,477.3z" class="st2"></path>
		</g>
	</g>
	<g>
		<defs>
			<path d="M915.3,875.8l-358.5-98.5c-1-0.3-1.6-1.3-1.3-2.3L689,289c5.7-20.6,27.2-32.9,47.9-27.2l319.6,87.8
				c20.8,5.7,33.1,27.3,27.4,48.1l-124.5,453C954.2,869.7,934.3,881,915.3,875.8z" id="SVGID_1_"></path>
		</defs>
		<clipPath id="SVGID_2_">
			<use style="overflow:visible;" xlink:href="#SVGID_1_"></use>
		</clipPath>
		<g class="st4">
			<g>
				
					<ellipse ry="226.4" rx="206.9" cy="896.9" cx="739.2" class="st5" transform="matrix(0.2649 -0.9643 0.9643 0.2649 -321.417 1372.1023)"></ellipse>
			</g>
			<g>
				<path d="M606.9,1067c-76.3-52.7-115.8-144.1-91.8-231.7c31.1-113.3,157-177.8,280.6-143.8
					c123.6,33.9,198.9,153.8,167.8,267c-15.1,55-52.7,100.2-105.8,127.3c-52.9,27.1-115,32.9-174.8,16.5
					C654.8,1094.6,629.2,1082.4,606.9,1067z M864.8,736.8c-21.3-14.7-45.6-26.2-72.3-33.6C675.3,671,556.2,731.7,526.8,838.5
					c-29.3,106.8,42.1,219.8,159.2,252c56.8,15.6,115.8,10.1,166-15.6c50-25.6,85.4-68.1,99.6-119.7
					C974.3,872.8,936.9,786.6,864.8,736.8z" class="st2"></path>
			</g>
		</g>
		<g class="st4">
			<g>
				<path d="M561.2,865.6C591.5,755.5,713.7,693,834.3,726.1c12.7,3.5,24.8,8.1,36.4,13.4c-22.1-15.4-47.2-27.6-75-35.2
					c-120.6-33.1-242.8,29.3-273.1,139.5c-27.1,98.5,28.7,201.7,127.1,246.1C576,1038.6,537.9,950.4,561.2,865.6z" class="st6"></path>
			</g>
		</g>
	</g>
	<g>
		<path d="M580.8,789c-6.6-4.5-12.1-10.5-16.1-17.7c-7.1-12.5-8.9-26.9-5.1-40.7l120.1-437.3
			c7.8-28.5,37.4-45.3,65.9-37.5l306.8,84.3c28.5,7.8,45.3,37.4,37.5,65.9L969.7,843.3c-7.8,28.5-37.4,45.3-65.9,37.5L597,796.6
			C591.1,794.9,585.6,792.4,580.8,789z M1059.5,360.7c-3.4-2.4-7.3-4.2-11.4-5.3l-306.8-84.3c-20.1-5.5-40.9,6.3-46.4,26.4
			L574.7,734.9c-2.7,9.7-1.4,19.9,3.6,28.7c5,8.8,13.1,15.1,22.8,17.8l306.8,84.3c20.1,5.5,40.9-6.3,46.4-26.4l120.1-437.3
			c2.7-9.7,1.4-19.9-3.6-28.7C1068,368.2,1064.1,363.9,1059.5,360.7z" class="st2"></path>
	</g>
</g>
<g>
	<g>
		<path d="M750.6,872.4L395,996.7c-26.6,9.3-56-4.9-65.3-31.5L152.2,457.4c-9.3-26.6,4.9-56,31.5-65.3l357.7-125
			c26.6-9.3,56,4.9,65.3,31.5l176.7,505.8C793.1,832.1,778.3,862.7,750.6,872.4z" class="st0"></path>
	</g>
	<g>
		<path d="M212.6,387.8c0,0-19.7,16.6-5.9,22.9l192.5,64.3l-0.1,27.4l-246.5-78.1C152.7,424.4,152.7,389.3,212.6,387.8z" class="st1"></path>
	</g>
	<g>
		<path d="M195.4,396.5c2.3,0.6,167.2,478.4,167.2,478.4s38.3-44.6,95.2-65.3l-89.4,125.8l-12.9,41.3l0.4,21.7l-20-15.7
			L145.7,438.8C145.7,438.8,150.7,384.7,195.4,396.5z" class="st1"></path>
	</g>
	<g>
		<polygon points="440.6,526.9 155.4,429.7 160,416.2 434,509.5 573,266.7 585.5,273.8" class="st2"></polygon>
	</g>
	<g>
		<g>
			<path d="M544.6,531.4c0-0.1-33.3-77.5-104.9-56.2c-69.3,28-47.1,109.3-47.1,109.4c1.7,6.1,2.8,12.7,9.6,15.1
				c5.6,1.9,12.1-0.4,17.2-2.7c6.3-2.9,12.1-6.8,17.5-11c6.7-5.1,12.2-12,20-15.6c8.4-3.9,17.1-7.3,26.2-9.2
				c15.9-3.3,32.4,0.6,48.2-3.3c5.5-1.4,11.9-3.5,15.1-8.6C550.3,543,547.1,537.2,544.6,531.4z" class="st3"></path>
			<path d="M406.7,607.4c-2.3,0-4.6-0.3-6.8-1.1c-9.8-3.4-12.1-12-13.8-18.4l-0.5-1.7c-0.9-3.6-21.9-88.1,51.3-117.7
				c76.8-22.7,112.3,55.6,114.2,60l0,0c0.1,0.1,0.1,0.2,0.1,0.2l-6.6,2.7l7.2-1.4c2.7,6,6.3,14.2,0.7,23c-4.6,7.2-12.8,10-19.4,11.7
				c-9.2,2.3-18.2,2.1-26.9,2.1c-7.6-0.1-14.8-0.1-21.6,1.3c-7.5,1.5-15.3,4.3-24.7,8.6c-4.1,1.9-7.6,5.2-11.4,8.6
				c-2.3,2.1-4.7,4.3-7.2,6.2c-4.9,3.7-11.4,8.4-18.9,11.8C418.2,605.2,412.6,607.4,406.7,607.4z M399.6,582.8c2,7.4,2.8,9.2,5,10
				c3.5,1.3,9.8-1.5,11.8-2.5c6.2-2.8,11.9-6.9,16.2-10.2c2.2-1.7,4.2-3.5,6.2-5.4c4.4-4,9-8.2,15.1-11.1
				c10.4-4.8,19.2-7.9,27.8-9.7c8.4-1.7,16.8-1.6,24.7-1.6c8.3,0.1,15.9,0.2,23.2-1.7c3.7-0.9,8.9-2.5,10.8-5.5c1.3-2,0.7-4-1.7-9.5
				l-0.7-1.6c-1.3-2.9-31.4-71.4-96.3-52.2c-60,24.3-44.2,92.9-42.2,100.6L399.6,582.8z" class="st2"></path>
		</g>
		<g>
			
				<ellipse ry="21.9" rx="21.9" cy="533.6" cx="338.8" class="st3" transform="matrix(0.944 -0.3299 0.3299 0.944 -157.0439 141.6122)"></ellipse>
			<path d="M338.8,562.6c-12,0-23.3-7.5-27.5-19.5c-5.3-15.1,2.7-31.7,17.8-37c15.2-5.3,31.7,2.7,37,17.8v0
				c5.3,15.1-2.7,31.7-17.8,37C345.2,562.1,342,562.6,338.8,562.6z M338.7,518.8c-1.6,0-3.2,0.3-4.8,0.8
				c-7.7,2.7-11.7,11.1-9.1,18.8c2.7,7.7,11.1,11.8,18.8,9c7.7-2.7,11.7-11.1,9.1-18.8C350.6,522.6,344.8,518.8,338.7,518.8z" class="st2"></path>
		</g>
		<g>
			
				<ellipse ry="21.9" rx="21.9" cy="462.9" cx="384.8" class="st3" transform="matrix(0.944 -0.3299 0.3299 0.944 -131.1617 152.8467)"></ellipse>
			<path d="M384.8,492c-12,0-23.3-7.5-27.5-19.5c-5.3-15.1,2.7-31.7,17.8-37c7.3-2.5,15.2-2.1,22.2,1.3
				c7,3.4,12.2,9.3,14.8,16.6c2.6,7.3,2.1,15.2-1.2,22.2c-3.4,7-9.3,12.2-16.6,14.8C391.2,491.4,388,492,384.8,492z M384.8,448.2
				c-1.6,0-3.3,0.3-4.9,0.8c-7.7,2.7-11.7,11.1-9.1,18.8c2.7,7.7,11,11.7,18.8,9c3.7-1.3,6.7-4,8.4-7.5c1.7-3.5,1.9-7.5,0.6-11.2v0
				c-1.3-3.7-4-6.7-7.5-8.4C389.2,448.7,387,448.2,384.8,448.2z" class="st2"></path>
		</g>
		<g>
			
				<ellipse ry="21.9" rx="21.9" cy="431.1" cx="468.5" class="st3" transform="matrix(0.944 -0.3299 0.3299 0.944 -115.9962 178.6676)"></ellipse>
			<path d="M468.5,460.2c-12,0-23.3-7.5-27.5-19.5c-5.3-15.2,2.7-31.7,17.8-37c15.2-5.3,31.7,2.7,37,17.8v0
				c5.3,15.1-2.7,31.7-17.8,37C474.9,459.7,471.7,460.2,468.5,460.2z M468.5,416.4c-1.6,0-3.3,0.3-4.9,0.8
				c-7.7,2.7-11.7,11.1-9,18.8c2.7,7.6,11.1,11.8,18.8,9c7.7-2.7,11.7-11.1,9.1-18.8C480.3,420.2,474.5,416.4,468.5,416.4z" class="st2"></path>
		</g>
		<g>
			
				<ellipse ry="21.9" rx="21.9" cy="466.8" cx="544.9" class="st3" transform="matrix(0.944 -0.3299 0.3299 0.944 -123.474 205.8728)"></ellipse>
			<path d="M544.9,495.8c-4.3,0-8.6-1-12.6-2.9c-7-3.4-12.2-9.3-14.8-16.6c-2.6-7.3-2.1-15.2,1.2-22.2
				c3.4-7,9.3-12.3,16.6-14.8c7.4-2.5,15.2-2.1,22.2,1.3c7,3.4,12.2,9.3,14.8,16.6c2.6,7.3,2.1,15.2-1.2,22.2
				c-3.4,7-9.3,12.3-16.6,14.8C551.3,495.3,548.1,495.8,544.9,495.8z M544.9,452c-1.6,0-3.3,0.3-4.9,0.8c-3.7,1.3-6.7,4-8.4,7.5
				c-1.7,3.5-1.9,7.5-0.6,11.2c1.3,3.7,4,6.7,7.5,8.4c3.5,1.7,7.6,2,11.2,0.6c3.7-1.3,6.7-4,8.4-7.5c1.7-3.5,1.9-7.5,0.6-11.2v0
				c-1.3-3.7-4-6.7-7.5-8.4C549.3,452.5,547.1,452,544.9,452z" class="st2"></path>
		</g>
	</g>
	<g>
		<defs>
			<path d="M749.7,872.8L397.9,995.7c-28.2,9.9-59.4-5.2-69.3-33.4L151.3,454.8c-8.8-25.2,4.6-53,29.8-61.8
				l361.4-126.3c26-9.1,54.6,4.7,63.7,30.7l176.8,506.1C793,831.7,777.9,862.9,749.7,872.8z" id="SVGID_3_"></path>
		</defs>
		<clipPath id="SVGID_4_">
			<use style="overflow:visible;" xlink:href="#SVGID_3_"></use>
		</clipPath>
		<g class="st7">
			<g>
				
					<ellipse ry="243.2" rx="266.1" cy="1006.7" cx="605" class="st5" transform="matrix(0.944 -0.3299 0.3299 0.944 -298.2094 255.9108)"></ellipse>
			</g>
			<g>
				<path d="M590.5,1259.6c-109,0-208.3-62.1-243.5-162.8C301.5,966.5,380.2,820,522.4,770.3
					c142.2-49.7,295,15.9,340.6,146.2c22.1,63.2,15.9,132.1-17.3,193.8c-33.1,61.5-89.3,108.6-158.1,132.7
					C655.3,1254.3,622.5,1259.6,590.5,1259.6z M619.5,768c-30.4,0-61.7,5.1-92.4,15.8c-134.8,47.1-209.5,185.4-166.5,308.3
					s187.5,184.5,322.3,137.4c65.4-22.9,118.7-67.6,150.2-126c31.3-58.2,37.1-122.9,16.4-182.3C816.3,826.4,722.5,768,619.5,768z" class="st2"></path>
			</g>
		</g>
		<g class="st7">
			<g>
				<path d="M411.9,1095.4c-44.3-126.8,32.2-268.9,171-317.4c14.7-5.1,29.4-8.7,44.2-11.4c-31.6-0.1-64.1,4.8-96.1,16
					c-138.7,48.5-215.3,190.6-171,317.4c39.6,113.4,162.5,175.9,287.3,153.2C541.7,1252.8,446,1192.9,411.9,1095.4z" class="st6"></path>
			</g>
		</g>
	</g>
	<g>
		<path d="M379.6,1008.2c-9.4,0-18.7-2.1-27.4-6.3c-15.2-7.3-26.6-20.1-32.1-35.9L144.3,462.8
			c-11.5-32.8,5.9-68.8,38.7-80.3l353-123.4c32.8-11.5,68.8,5.9,80.3,38.7L792.1,801c11.5,32.8-5.9,68.8-38.7,80.3l-353,123.4
			C393.6,1007,386.6,1008.2,379.6,1008.2z M556.7,274.2c-4.9,0-9.8,0.8-14.5,2.5l-353,123.4c-23.1,8.1-35.3,33.4-27.3,56.6
			l175.8,503.2c3.9,11.1,11.9,20.1,22.7,25.3c10.7,5.2,22.8,5.8,33.9,2l353-123.4c23.1-8.1,35.3-33.5,27.3-56.6L598.7,304
			c-3.9-11.1-11.9-20.1-22.7-25.3C569.9,275.7,563.3,274.2,556.7,274.2z" class="st2"></path>
	</g>
</g>
</svg>
